<?xml version="1.0" encoding="UTF-8" standalone="no"?>
<!-- Uploaded to: SVG Repo, www.svgrepo.com, Generator: SVG Repo Mixer Tools -->

<svg
   fill="#000000"
   version="1.1"
   id="Capa_1"
   width="550.25641"
   height="253.688"
   viewBox="0 0 550.25641 253.68798"
   xml:space="preserve"
   xmlns="http://www.w3.org/2000/svg"
   xmlns:svg="http://www.w3.org/2000/svg"
   xmlns:rdf="http://www.w3.org/1999/02/22-rdf-syntax-ns#"
   xmlns:cc="http://creativecommons.org/ns#"><defs
   id="defs1"><marker
     style="overflow:visible"
     id="marker3"
     refX="0"
     refY="0"
     orient="auto-start-reverse"
     markerWidth="1"
     markerHeight="1"
     viewBox="0 0 1 1"
     preserveAspectRatio="xMidYMid"><path
       style="fill:none;stroke:context-stroke;stroke-width:1;stroke-linecap:round"
       d="M 3,-3 0,0 3,3"
       transform="rotate(180,0.125,0)"
       id="path3" /></marker></defs>

<g
   id="g3"
   transform="scale(17.880306)"><g
     id="g1"
     transform="matrix(0.3125344,0,0,0.31253419,-9.3709579e-4,0)">
	<path
   d="M 41.267,18.557 H 26.832 V 4.134 C 26.832,1.851 24.99,0 22.707,0 20.424,0 18.583,1.851 18.583,4.135 V 18.567 H 4.141 c -2.283,0 -4.139,1.851 -4.138,4.135 -0.001,1.141 0.46,2.187 1.207,2.934 0.748,0.749 1.78,1.222 2.92,1.222 H 18.583 V 41.27 c 0,1.142 0.453,2.176 1.201,2.922 0.748,0.748 1.777,1.211 2.919,1.211 2.282,0 4.129,-1.851 4.129,-4.133 V 26.857 h 14.435 c 2.283,0 4.134,-1.867 4.133,-4.15 -10e-4,-2.282 -1.852,-4.15 -4.133,-4.15 z"
   id="path1" />
</g><path
     d="m 23.268509,7.1691351 c 0,-0.3791418 -0.307378,-0.6865195 -0.686519,-0.6865195 -0.379142,0 -0.68652,0.3073777 -0.68652,0.6865195 z M 22.58199,13.501595 h -0.68652 c 0,0.227923 0.113135,0.44102 0.301977,0.568715 0.188849,0.127683 0.428754,0.153317 0.640294,0.06837 z m 5.257827,-2.11082 0.255752,0.63709 c 0.260238,-0.104435 0.43077,-0.356716 0.43077,-0.63709 z m 0.686522,-4.3882357 c 0,-0.3791419 -0.307379,-0.6865194 -0.686522,-0.6865194 -0.379142,0 -0.686519,0.3073775 -0.686519,0.6865194 z M 22.998843,6.6236722 c -0.301244,-0.2302126 -0.732102,-0.1726389 -0.962316,0.1286005 -0.230213,0.3012442 -0.172639,0.7321034 0.1286,0.9623159 z m 1.457802,1.9780015 -0.416854,0.545463 c 0.204118,0.1559833 0.478183,0.1849869 0.710411,0.075157 z M 28.130628,7.6231532 C 28.47334,7.4609424 28.619796,7.0516954 28.457686,6.7089835 28.295475,6.3662739 27.886227,6.2198154 27.543516,6.3819253 Z M 22.326237,6.5320443 c -0.351865,0.1412467 -0.522578,0.5409781 -0.381339,0.8928427 0.141247,0.3518658 0.540978,0.5225788 0.892843,0.381339 z M 28.095569,5.6954059 C 28.447434,5.5541591 28.618147,5.1544007 28.476908,4.8025467 28.33566,4.4506902 27.935932,4.2799572 27.584066,4.421217 Z m -0.511412,0 C 27.936023,5.8366527 28.335761,5.6658479 28.476908,5.3139764 28.618154,4.9621106 28.44735,4.5623828 28.095477,4.4211806 Z M 22.837649,2.3112752 c -0.351864,-0.1412033 -0.751601,0.029582 -0.892751,0.3814588 -0.141246,0.3518823 0.02956,0.7516101 0.38143,0.8928123 z m 5.338565,2.1495107 c -0.330446,-0.1857983 -0.74904,-0.068475 -0.934857,0.2620216 -0.185821,0.3305107 -0.06846,0.7490676 0.262066,0.9348872 z m 1.541008,1.6538546 0.293189,0.6207971 c 0.232227,-0.1096586 0.38381,-0.339782 0.392872,-0.5964487 0.0092,-0.2566666 -0.125764,-0.496948 -0.349666,-0.6228099 z m -2.17334,0.2671017 C 27.201079,6.543676 27.054346,6.9528359 27.216274,7.295731 27.378208,7.6385322 27.787366,7.7852644 28.13026,7.6233364 Z M 27.32804,4.597642 c -0.254377,0.2811173 -0.232775,0.7152353 0.04832,0.9697059 0.281105,0.2543791 0.715262,0.232775 0.969733,-0.048324 z m 2.759901,-2.0263591 0.509033,0.4606729 C 30.752403,2.8601696 30.810803,2.6215171 30.75204,2.3973734 30.693372,2.1732214 30.525581,1.9937995 30.305803,1.9202609 Z M 24.456645,0.68655809 24.674502,0.03553495 c -0.268567,-0.08991816 -0.56487,-0.0055193 -0.745927,0.21230651 z M 22.049342,2.5096883 c -0.242296,0.2916345 -0.202305,0.7244713 0.08934,0.9667654 0.291631,0.2423059 0.724506,0.2023059 0.966801,-0.089319 z m -4.985438,1.9114923 c -0.351874,0.1412033 -0.522659,0.54093 -0.381458,0.8927958 0.141204,0.3518647 0.540933,0.5226704 0.892815,0.3814295 z M 22.833073,3.5855463 C 23.184937,3.4443441 23.355743,3.0446163 23.214504,2.692734 23.073363,2.3408601 22.673617,2.1700719 22.321753,2.3112752 Z M 17.656005,5.6567776 C 17.986514,5.4709592 18.103827,5.0524022 17.918028,4.7218928 17.732209,4.3913844 17.31367,4.2740727 16.983161,4.4598711 Z m -2.213824,0.456948 -0.336424,-0.5984614 c -0.223759,0.1257633 -0.358656,0.3659601 -0.349676,0.6224435 0.0089,0.2565751 0.160333,0.4866961 0.39234,0.5965391 z m 1.583645,1.5093384 c 0.342683,0.1622109 0.752013,0.015994 0.914251,-0.3267857 0.162233,-0.3427095 0.016,-0.751967 -0.326737,-0.9142613 z m 0.549527,-3.201847 c -0.351856,-0.1412692 -0.751611,0.029476 -0.892869,0.3813297 -0.141268,0.351854 0.02948,0.7516194 0.381329,0.8928592 z m 4.746308,3.385009 C 22.673526,7.9474728 23.073263,7.7767504 23.214504,7.424887 23.35575,7.0730224 23.185025,6.6732852 22.833165,6.5320443 Z M 16.806706,5.5147135 c 0.252038,0.2832123 0.68598,0.3084756 0.969239,0.056473 0.283257,-0.2519987 0.308559,-0.6859805 0.05652,-0.9692375 z M 15.442181,2.9484108 15.170884,2.3177739 c -0.202624,0.087159 -0.351022,0.2663702 -0.398877,0.4816888 -0.04785,0.215321 0.01072,0.4405275 0.157284,0.6053101 z m 5.257828,-2.26185271 0.528254,-0.4384665 C 21.033848,0.01384046 20.708339,-0.06438496 20.428714,0.05592127 Z m 1.349149,2.70031921 c 0.242113,0.2917544 0.674987,0.3319457 0.966713,0.089789 0.291724,-0.2421579 0.331999,-0.6749772 0.08979,-0.9667209 z m 1.214775,3.7831726 c 0,-0.3791418 -0.307379,-0.6865194 -0.686521,-0.6865194 -0.37914,0 -0.686519,0.3073776 -0.686519,0.6865194 z m -0.686521,6.3315451 -0.255751,0.637092 c 0.21154,0.08495 0.451455,0.05932 0.640294,-0.06837 0.188848,-0.127705 0.301978,-0.340791 0.301978,-0.568713 z m -5.257829,-2.11082 h -0.686519 c 0,0.280374 0.170529,0.532649 0.430749,0.63709 z m 0.68652,-4.3882357 c 0,-0.3791419 -0.30737,-0.6865194 -0.68652,-0.6865194 -0.379149,0 -0.686519,0.3073775 -0.686519,0.6865194 z m 4.987799,0.7123335 C 23.295329,7.484935 23.35318,7.0540758 23.123143,6.7526462 22.893203,6.4512189 22.462342,6.3933681 22.160914,6.6233974 Z m -2.293893,0.8868009 -0.293576,0.620614 c 0.232064,0.1097406 0.505938,0.080911 0.710065,-0.074875 z M 17.613157,6.3819253 c -0.342738,-0.162104 -0.752024,-0.015571 -0.91416,0.3270582 -0.162147,0.3427119 -0.01578,0.7519695 0.327011,0.9141697 z m 4.282313,0.7872098 v 6.3324599 h 1.373039 V 7.1691351 Z m 0.942271,6.9695519 5.257828,-2.110822 -0.511503,-1.274179 -5.257829,2.11082 z m 5.688598,-2.747912 V 7.0025393 H 27.153298 V 11.390775 Z M 22.165133,7.714598 24.039791,9.1471367 24.873503,8.0562108 22.998843,6.6236722 Z M 24.750202,9.2222877 28.130628,7.6231532 27.543516,6.3819253 24.163089,7.9810598 Z M 22.837741,7.806226 28.095569,5.6954059 27.584066,4.421217 22.326237,6.5320443 Z M 28.095477,4.4211806 22.837649,2.3112752 22.326328,3.5855463 27.584157,5.6954059 Z M 27.503423,5.6576947 29.380827,6.7131043 30.053617,5.516179 28.176214,4.4607859 Z M 29.424031,5.493841 27.543882,6.3817398 28.13026,7.6233341 30.010411,6.7354352 Z m -1.077927,0.025166 2.25087,-2.4870614 -1.018065,-0.921346 -2.250869,2.487032 z M 30.305797,1.9202503 24.674502,0.03552439 24.238791,1.3375684 29.870085,3.2222955 Z M 23.928575,0.24782267 22.049342,2.5096777 23.105482,3.3871227 24.98472,1.12527 Z M 17.575261,5.6953953 22.833073,3.5855357 22.321753,2.3112647 17.063904,4.42117 Z m -0.5921,-1.2355348 -1.877404,1.0553931 0.672846,1.1969229 1.877402,-1.0554095 z M 15.148421,6.7342468 17.025826,7.623064 17.61334,6.382017 15.735937,5.4932033 Z M 17.063813,5.6954059 22.321661,7.806226 22.833165,6.5320443 17.575353,4.421217 Z M 17.832459,4.6019541 15.955055,2.4920499 14.929302,3.4047728 16.806706,5.5147135 Z M 15.713476,3.5790487 20.97132,1.3171949 20.428714,0.05592127 15.170884,2.3177739 Z m 4.458279,-2.4540241 1.877403,2.2618527 1.05651,-0.8769331 -1.877405,-2.26185261 z m 1.719138,6.0450253 v 6.3315451 h 1.37304 V 7.1700499 Z m 0.942272,5.6944561 -5.257812,-2.11082 -0.51154,1.274179 5.257848,2.110822 z M 18.006103,11.390775 V 7.0025393 h -1.373039 v 4.3882357 z m 4.154821,-4.7673776 -1.877369,1.4325387 0.832943,1.0914753 1.877404,-1.4325386 z m -1.167359,1.3576624 -3.380408,-1.5991345 -0.587149,1.2412279 3.380425,1.5991345 z"
     fill="#000000"
     id="path1-8"
     style="stroke:none;stroke-width:0.251891;stroke-dasharray:none;marker-start:url(#marker3)" /></g><metadata
   id="metadata3"><rdf:RDF><cc:Work
       rdf:about="" /></rdf:RDF></metadata></svg>
