<?xml version="1.0" encoding="UTF-8"?>
<!DOCTYPE svg PUBLIC "-//W3C//DTD SVG 1.1//EN" "http://www.w3.org/Graphics/SVG/1.1/DTD/svg11.dtd">
<!-- Creator: CorelDRAW 2017 -->
<svg xmlns="http://www.w3.org/2000/svg" xml:space="preserve" width="43.507mm" height="43.507mm" version="1.1" style="shape-rendering:geometricPrecision; text-rendering:geometricPrecision; image-rendering:optimizeQuality; fill-rule:evenodd; clip-rule:evenodd"
viewBox="0 0 4878.3457 4878.3457"
 xmlns:xlink="http://www.w3.org/1999/xlink">
 <defs>
  <style type="text/css">
     <![CDATA[
    .fil0 {fill:none}
    .fil1 {fill:#FEFEFE;fill-rule:nonzero}
   ]]>
  </style>
 </defs>
 <g id="Ebene_x0020_1">
  <metadata id="CorelCorpID_0Corel-Layer"/>
  <rect class="fil0" x="-0" y="0" width="4878.33" height="4878.33"/>
  <g id="_1847108761872" transform="translate(-16977.66 0)">
   <path class="fil1" d="M17735.51 1954.33c124.88,0.19 241.94,58.55 317.2,157.82l2.57 1.77 9.61 15.29c5.44,8.02 10.53,16.34 15.48,25.08l298.65 480.08 7.95 12.55 0.55 0.74c40.57,59.41 107.63,94.89 179.47,94.89l435.54 0c72.13,-0.17 139.37,-35.66 179.94,-95.63l0.56 -0.92 7.1 -11.8 1.4 -2.4 297.44 -477.51c5.07,-8.75 10.34,-17.44 15.96,-25.63l9.68 -14.74 1.96 -1.23c74.89,-99.42 192.3,-158.36 317.56,-158.17l463.19 0c124.89,-0.19 242.12,58.55 317.2,157.8l3.32 1.96 9.41 15.66c5.26,7.65 10.34,15.98 15.31,24.35l298.46 479.91 7.29 11.8 0.67 0.92c40.57,59.79 107.62,95.63 179.83,95.63l187.79 0 303.35 -303.79 -2201.72 -2201.84 -1717.41 1717.6 34.69 -0.19z"/>
   <path class="fil1" d="M21128.86 2923.16c-130.89,0 -253.03,-64.17 -327.37,-171.94l-2.2 -3.12c-4.53,-6.54 -9.1,-13.65 -13.63,-21.79l-299.57 -481.17c-3.07,-5.44 -6.2,-10.57 -9.44,-15.29l-0.73 -0.92c-40.57,-58.68 -107.26,-93.79 -178.54,-93.79l-463.31 0c-71.47,0 -138.53,35.29 -179.1,94.34l-1.22 1.65 -8.58 14.02 -1.84 3.25 -297.54 477.92 -8.02 13.04 -0.19 0.73 -5.62 8.02c-73.99,109.77 -197.21,174.89 -329.57,175.05l-435.35 0.19c-131.07,-0.19 -253.2,-64.36 -327.54,-172.13l-2.2 -3.12c-4.53,-6.91 -9.13,-14.02 -13.84,-21.79l-299.39 -481.17c-2.87,-5.08 -5.81,-10.04 -8.88,-14.57l-0.73 -1.1c-40.74,-59.06 -107.62,-94.34 -179.09,-94.34l-215.2 0 -303.74 303.79 2201.84 2201.84 1717.47 -1717.61 -6.9 0z"/>
  </g>
 </g>
</svg>
