<?xml version="1.0" encoding="UTF-8"?>
<!DOCTYPE svg PUBLIC "-//W3C//DTD SVG 1.1//EN" "http://www.w3.org/Graphics/SVG/1.1/DTD/svg11.dtd">
<!-- Creator: CorelDRAW 2017 -->
<svg xmlns="http://www.w3.org/2000/svg" xml:space="preserve" width="196.72mm" height="43.507mm" version="1.1" style="shape-rendering:geometricPrecision; text-rendering:geometricPrecision; image-rendering:optimizeQuality; fill-rule:evenodd; clip-rule:evenodd"
viewBox="0 0 22057.77 4878.3457"
 xmlns:xlink="http://www.w3.org/1999/xlink">
 <defs>
  <style type="text/css">
  
   <![CDATA[
    .fil0 {fill:#FEFEFE}
    .fil1 {fill:#0062ad;fill-rule:nonzero}
   ]]>
  </style>
 </defs>
 <g id="Ebene_x0020_1">
  <metadata id="CorelCorpID_0Corel-Layer"/>
  <rect class="fil0" x="-0" y="0" width="22057.77" height="4878.33"/>
  <g id="_1847108761872">
  
   <polygon class="fil1" points="437.87,911.28 437.87,3323.11 829.21,3323.11 829.21,2189.92 1783.75,2189.92 1783.75,1845.61 829.21,1845.61 829.21,1245.18 1783.75,1245.18 1783.75,911.28 "/>
   <polygon class="fil1" points="2405.43,3323.2 2065.72,3323.2 2065.72,896.25 2405.43,896.25 "/>
   <path class="fil1" d="M3521.43 2091.95c-253.2,0 -458.41,214.89 -458.41,493.73 0,278.83 205.22,493.71 458.41,493.71 250.15,0 458.42,-214.88 458.42,-493.71 0,-278.84 -205.23,-493.73 -458.42,-493.73zm-577.12 -73.8c153.95,-150.69 359.18,-230.67 574,-230.67 221.07,0 423.24,79.98 580.25,233.91 154,150.71 240.33,346.34 240.33,560.98 0,221.44 -83.27,416.81 -237.03,564.27 -160.32,153.95 -362.49,237.41 -583.56,237.41 -214.83,0 -420.05,-83.46 -574,-234.17 -157.07,-153.95 -240.33,-349.37 -240.33,-567.51 0,-214.64 83.27,-413.5 240.33,-564.22z"/>
   <path class="fil1" d="M5350.6 2091.95c-253.2,0 -458.43,214.89 -458.43,493.73 0,278.83 205.24,493.71 458.43,493.71 250.13,0 458.42,-214.88 458.42,-493.71 0,-278.84 -205.24,-493.73 -458.42,-493.73zm-577.12 -73.8c153.94,-150.69 359.18,-230.67 574,-230.67 221.06,0 423.05,79.98 580.25,233.91 154,150.71 240.33,346.34 240.33,560.98 0,221.44 -83.29,416.81 -237.24,564.27 -160.3,153.95 -362.28,237.41 -583.34,237.41 -214.83,0 -420.06,-83.46 -574,-234.17 -157.07,-153.95 -240.36,-349.37 -240.36,-567.51 0,-214.64 83.29,-413.5 240.36,-564.22z"/>
   <path class="fil1" d="M7167.88 1787.4c96.19,0 189.08,22.34 279.03,67.24l-121.95 288.68c-64,-44.91 -131.44,-60.89 -208.34,-60.89 -240.48,0 -317.39,189.19 -317.39,589.67l0 651.16 -339.9 0 0 -1487.71 339.9 0 0 240.35c73.61,-195.44 189.07,-288.5 368.65,-288.5z"/>
   <path class="fil1" d="M8167.65 2995.92c219.23,0 374.46,-10.14 468.82,-74.33 94.55,-64 151.94,-175.42 151.94,-306.86 0,-151.92 -64.15,-269.96 -185.59,-334.07 -91.04,-47.13 -199.04,-53.85 -317.2,-53.85l-117.97 0 -134.86 0 0 769.12 134.86 0zm13.46 -1065.94c354.28,0 512.83,-81.07 512.83,-333.89 0,-300.3 -165.44,-357.58 -512.83,-357.58l-148.31 0 0 691.47 148.31 0zm-533 -1018.71l607.35 0c256.32,0 448.44,10.05 596.96,121.28 148.5,108.18 236.11,293.57 236.11,509.51 0,256.32 -121.39,435.16 -347.36,502.67 279.94,43.8 451.87,269.89 451.87,593.44 0,199.05 -74.16,381.39 -195.55,502.67 -172.02,172.13 -401.59,182.34 -738.78,182.34l-610.6 0 0 -2411.9z"/>
   <path class="fil1" d="M10243.59 1787.4c96.19,0 189.27,22.34 279.03,67.24l-121.95 288.68c-64,-44.91 -131.44,-60.89 -208.34,-60.89 -240.47,0 -317.39,189.19 -317.39,589.67l0 651.16 -339.88 0 0 -1487.71 339.88 0 0 240.35c73.61,-195.44 189.07,-288.5 368.65,-288.5z"/>
   <path class="fil1" d="M11035.96 3323.01l-339.9 0 0 -1484.4 339.9 0 0 1484.4zm-169.97 -2337.18c118.7,0 211.59,89.83 211.59,211.65 0,121.76 -92.89,214.84 -211.59,214.84 -118.71,0 -214.9,-99.43 -214.9,-214.84 0,-115.46 96.19,-211.65 214.9,-211.65z"/>
   <path class="fil1" d="M12104.53 2088.74c-256.51,0 -413.58,186.12 -413.58,500.27 0,317.37 150.53,493.73 407.02,493.73 237.41,0 413.75,-192.39 413.75,-506.64 0,-311.02 -154,-487.36 -407.19,-487.36zm737.3 -1192.68l0 2427.14 -339.76 0 0 -192.31c-121.78,169.78 -282.15,253.01 -490.62,253.01 -413.56,0 -676.43,-298.1 -676.43,-804.74 0,-477.51 275.78,-791.64 666.78,-791.64 243.75,0 419.93,105.6 500.27,294.86l0 -1186.31 339.76 0z"/>
   <path class="fil1" d="M13913.04 2088.78c-256.5,0 -413.56,185.95 -413.56,500.27 0,317.2 150.71,493.54 407.2,493.54 233.92,0 413.56,-192.37 413.56,-506.64 0,-310.83 -154.01,-487.17 -407.2,-487.17zm-22.34 1933.23c-420.1,0 -673.29,-195.61 -676.61,-474.45l365.54 0c9.67,125.06 118.71,195.43 317.44,195.43 311.02,0 407.15,-137.79 410.26,-416.69l3.24 -195.56c-121.76,170 -282.14,253.2 -490.6,253.2 -413.56,0 -676.42,-298.1 -676.42,-804.73 0,-477.52 275.77,-791.84 666.76,-791.84 243.77,0 420.11,105.8 500.27,295.05l0 -243.78 339.96 0 0 1391.53c0,554.62 -185.95,791.84 -759.83,791.84z"/>
   <path class="fil1" d="M15732.54 2075.96c-221.26,0 -355.75,105.78 -410.43,327.04l811.1 0c-25.46,-214.89 -166.57,-327.04 -400.67,-327.04zm-432.85 554.61c16.05,278.83 173.11,442.45 419.95,442.45 218.12,0 355.93,-86.52 464.95,-291.73l285.44 160.3c-166.92,298.11 -410.44,442.46 -743.86,442.46 -474.45,0 -778.93,-314.27 -778.93,-798.38 0,-461.54 317.2,-798.2 778.93,-798.2 477.69,0 759.63,285.26 759.63,778.93l0 64.19 -1186.12 0z"/>
   <path class="fil1" d="M17735.51 1954.33c124.88,0.19 241.94,58.55 317.2,157.82l2.57 1.77 9.61 15.29c5.44,8.02 10.53,16.34 15.48,25.08l298.65 480.08 7.95 12.55 0.55 0.74c40.57,59.41 107.63,94.89 179.47,94.89l435.54 0c72.13,-0.17 139.37,-35.66 179.94,-95.63l0.56 -0.92 7.1 -11.8 1.4 -2.4 297.44 -477.51c5.07,-8.75 10.34,-17.44 15.96,-25.63l9.68 -14.74 1.96 -1.23c74.89,-99.42 192.3,-158.36 317.56,-158.17l463.19 0c124.89,-0.19 242.12,58.55 317.2,157.8l3.32 1.96 9.41 15.66c5.26,7.65 10.34,15.98 15.31,24.35l298.46 479.91 7.29 11.8 0.67 0.92c40.57,59.79 107.62,95.63 179.83,95.63l187.79 0 303.35 -303.79 -2201.72 -2201.84 -1717.41 1717.6 34.69 -0.19z"/>
   <path class="fil1" d="M21128.86 2923.16c-130.89,0 -253.03,-64.17 -327.37,-171.94l-2.2 -3.12c-4.53,-6.54 -9.1,-13.65 -13.63,-21.79l-299.57 -481.17c-3.07,-5.44 -6.2,-10.57 -9.44,-15.29l-0.73 -0.92c-40.57,-58.68 -107.26,-93.79 -178.54,-93.79l-463.31 0c-71.47,0 -138.53,35.29 -179.1,94.34l-1.22 1.65 -8.58 14.02 -1.84 3.25 -297.54 477.92 -8.02 13.04 -0.19 0.73 -5.62 8.02c-73.99,109.77 -197.21,174.89 -329.57,175.05l-435.35 0.19c-131.07,-0.19 -253.2,-64.36 -327.54,-172.13l-2.2 -3.12c-4.53,-6.91 -9.13,-14.02 -13.84,-21.79l-299.39 -481.17c-2.87,-5.08 -5.81,-10.04 -8.88,-14.57l-0.73 -1.1c-40.74,-59.06 -107.62,-94.34 -179.09,-94.34l-215.2 0 -303.74 303.79 2201.84 2201.84 1717.47 -1717.61 -6.9 0z"/>
   <path class="fil1" d="M16652.79 905.51c-215.25,0 -377.33,173.05 -377.33,376.49 0,209.2 167.94,376.24 376.23,376.24 206.51,0 374.47,-167.05 374.47,-376.24 0,-204.55 -163.07,-376.49 -372.45,-376.49l-0.92 0zm-1.1 62.9c175.79,0 306.67,144.53 306.67,313.59 0,175.74 -137.6,313.16 -306.67,313.16 -169.97,0 -308.45,-139.39 -308.45,-313.16 0,-171.08 132.67,-313.59 307.54,-313.59l0.91 0zm-162.15 99.24l0 423.54 85.61 0 0 -171.07 65.83 0c79.61,0 85.42,38.37 88.37,70.73 3.05,30.53 5.98,86.52 13.75,100.34l82.55 0c-7.77,-20.74 -7.77,-28.69 -12.72,-105.05 -3.8,-59.11 -25.65,-83.64 -63.95,-97.42 57.03,-24.59 71.77,-64.91 71.77,-103.28 0,-92.15 -85.43,-117.79 -152.36,-117.79l-178.86 0zm165.28 60.89c24.52,0 81.43,0 81.43,62.9 0,71.83 -64.91,70.73 -89.44,71.83l-71.65 0 0 -134.73 79.67 0z"/>
  </g>
 </g>
</svg>
