<?xml version="1.0" encoding="UTF-8"?>
<!DOCTYPE svg PUBLIC "-//W3C//DTD SVG 1.1//EN" "http://www.w3.org/Graphics/SVG/1.1/DTD/svg11.dtd">
<!-- Creator: CorelDRAW 2017 -->
<svg xmlns="http://www.w3.org/2000/svg" xml:space="preserve" width="196.72mm" height="51.3933mm" version="1.1" style="shape-rendering:geometricPrecision; text-rendering:geometricPrecision; image-rendering:optimizeQuality; fill-rule:evenodd; clip-rule:evenodd"
viewBox="0 0 22057.77 5762.62"
 xmlns:xlink="http://www.w3.org/1999/xlink">
 <defs>
  <style type="text/css">
  
   <![CDATA[
    .fil0 {fill:#0062ad}
    .fil1 {fill:#FEFEFE;fill-rule:nonzero}
   ]]>
  </style>
 </defs>
 <g id="Ebene_x0020_1">
  <metadata id="CorelCorpID_0Corel-Layer"/>
  <rect class="fil0" x="-0" y="0" width="22057.77" height="5762.61"/>
  <g id="_1847108761872">
   <path class="fil1" d="M801.65 5292.91c-119.73,0 -210.35,-32.74 -271.72,-98.27 -61.43,-65.53 -92.09,-154.07 -92.09,-265.55 0,-79.8 12.97,-148.5 39.03,-206.2 25.96,-57.59 65.65,-102 119.15,-133.26 53.52,-31.27 121.64,-46.93 204.48,-46.93 42.23,0 80.84,3.24 115.83,9.65 35,6.37 67.62,14.87 97.72,25.4l0 107.33c-30.1,-12.01 -62.34,-21.24 -96.61,-27.66 -34.28,-6.42 -70.25,-9.61 -107.87,-9.61 -90.39,0 -154.2,24.11 -191.47,72.27 -37.33,48.27 -55.99,117.91 -55.99,209.02 0,85.17 20.31,149.79 61,193.78 40.69,44.06 103.53,66.16 188.71,66.16 34.64,0 69.52,-2.83 104.5,-8.52 35,-5.68 67.98,-14.5 98.87,-26.55l0 108.49c-30.16,9.78 -62.71,17.3 -97.76,22.58 -35.01,5.25 -73.61,7.88 -115.78,7.88z"/>
   <path class="fil1" d="M1332.11 5204.77c36.9,0 69.16,-6.17 96.61,-18.59 27.48,-12.49 49.89,-29.19 67.27,-50.3l0 -93.79 -169.49 0c-36.16,0 -62.35,7.04 -78.57,20.93 -16.15,13.94 -24.3,35.24 -24.3,63.81 0,27.91 9.43,47.84 28.27,59.9 18.78,12.06 45.54,18.04 80.22,18.04zm-32.72 88.11c-33.92,0 -65.42,-5.98 -94.43,-18.03 -28.93,-12.06 -52.12,-30.31 -69.44,-54.77 -17.31,-24.48 -26,-54.83 -26,-90.92 0,-51.28 17.57,-92.45 52.55,-123.79 35.01,-31.21 89.03,-46.87 162.16,-46.87l171.76 0 0 -23.74c0,-25.57 -3.99,-45.89 -11.87,-61.01 -7.95,-15.05 -22.28,-25.99 -42.94,-32.8 -20.75,-6.73 -51.11,-10.09 -90.99,-10.09 -63.21,0 -122.39,9.42 -177.39,28.2l0 -91.52c24.11,-9.8 53.47,-17.69 88.11,-23.68 34.69,-6.07 71.94,-9.05 111.9,-9.05 78.27,0 137.98,15.83 179.03,47.42 41.07,31.62 61.56,83.2 61.56,154.79l0 344.6 -104.99 0 -7.96 -54.2c-21.84,21.11 -48.78,37.26 -80.78,48.58 -32,11.26 -72.13,16.88 -120.28,16.88z"/>
   <path class="fil1" d="M1752.13 5281.62l0 -535.57 113.01 0 6.78 62.16c25.59,-16.57 56.11,-31.63 91.47,-45.17 35.44,-13.58 70.44,-23 105.13,-28.24l0 93.73c-21.11,3.8 -43.93,9.24 -68.41,16.4 -24.48,7.22 -47.61,15.04 -69.45,23.73 -21.85,8.69 -40.32,17.57 -55.38,26.55l0 386.4 -123.16 0z"/>
   <path class="fil1" d="M2420.46 5200.28c55.74,0 95.1,-15.85 118.09,-47.47 22.95,-31.59 34.4,-79.44 34.4,-143.49 0,-66.21 -12.45,-112.95 -37.28,-140.06 -24.84,-27.11 -64.05,-40.69 -117.47,-40.69 -55.75,0 -100.9,15.47 -135.61,46.31l0 268.86c35.37,37.71 81.33,56.55 137.86,56.55zm32.74 92.63c-39.17,0 -73.05,-5.25 -101.69,-15.78 -28.58,-10.58 -55.02,-26.75 -79.06,-48.58l-6.79 53.1 -106.22 0 0 -761.54 123.16 0 0 260.97c46.77,-30.89 102.8,-46.32 168.33,-46.32 76.06,0 136.21,21.67 180.21,64.98 44.11,43.33 66.13,113.2 66.13,209.58 0,97.23 -21.9,168.76 -65.59,214.7 -43.68,45.89 -103.16,68.89 -178.47,68.89z"/>
   <path class="fil1" d="M3073.42 5189c56.55,0 96.68,-13.77 120.36,-41.3 23.74,-27.47 35.56,-72.09 35.56,-133.82 0,-61.8 -11.82,-106.22 -35.56,-133.39 -23.68,-27.11 -63.81,-40.64 -120.36,-40.64 -55.74,0 -95.44,13.52 -119.14,40.64 -23.73,27.17 -35.67,71.58 -35.67,133.39 0,61.74 11.94,106.35 35.67,133.82 23.69,27.53 63.4,41.3 119.14,41.3zm0 103.9c-96.43,0 -167.05,-24.04 -211.83,-72.26 -44.78,-48.23 -67.19,-117.12 -67.19,-206.76 0,-89.65 22.53,-158.54 67.79,-206.81 45.17,-48.16 115.59,-72.27 211.23,-72.27 96.44,0 167.29,24.11 212.44,72.27 45.17,48.27 67.8,117.16 67.8,206.81 0,89.65 -22.45,158.54 -67.24,206.76 -44.86,48.21 -115.83,72.26 -213,72.26z"/>
   <path class="fil1" d="M3472.01 5281.62l0 -535.57 113.02 0 5.62 56.53c24.17,-18.84 52.94,-34.88 86.46,-47.96 33.47,-13.22 70.61,-19.82 111.3,-19.82 69.27,0 119.75,16.19 151.38,48.57 31.56,32.42 47.42,82.84 47.42,151.37l0 346.87 -122 0 0 -341.18c0,-41.42 -8.45,-70.42 -25.46,-87.07 -16.9,-16.52 -48.78,-24.84 -95.44,-24.84 -27.91,0 -55.2,5.68 -81.89,17.01 -26.73,11.26 -49.12,25.95 -67.24,44.06l0 392.02 -123.17 0z"/>
   <path class="fil1" d="M4726.17 5292.91c-119.75,0 -210.36,-32.74 -271.74,-98.27 -61.43,-65.53 -92.08,-154.07 -92.08,-265.55 0,-79.8 12.97,-148.5 39.04,-206.2 25.95,-57.59 65.64,-102 119.11,-133.26 53.55,-31.27 121.66,-46.93 204.5,-46.93 42.22,0 80.82,3.24 115.83,9.65 35,6.37 67.6,14.87 97.72,25.4l0 107.33c-30.12,-12.01 -62.35,-21.24 -96.61,-27.66 -34.28,-6.42 -70.25,-9.61 -107.89,-9.61 -90.36,0 -154.19,24.11 -191.45,72.27 -37.33,48.27 -55.99,117.91 -55.99,209.02 0,85.17 20.31,149.79 61,193.78 40.69,44.06 103.53,66.16 188.71,66.16 34.64,0 69.5,-2.83 104.5,-8.52 35,-5.68 67.98,-14.5 98.87,-26.55l0 108.49c-30.16,9.78 -62.71,17.3 -97.76,22.58 -35.01,5.25 -73.61,7.88 -115.77,7.88z"/>
   <path class="fil1" d="M5304.45 5189c56.52,0 96.67,-13.77 120.36,-41.3 23.73,-27.47 35.53,-72.09 35.53,-133.82 0,-61.8 -11.81,-106.22 -35.53,-133.39 -23.69,-27.11 -63.83,-40.64 -120.36,-40.64 -55.74,0 -95.47,13.52 -119.14,40.64 -23.75,27.17 -35.68,71.58 -35.68,133.39 0,61.74 11.93,106.35 35.68,133.82 23.67,27.53 63.4,41.3 119.14,41.3zm0 103.9c-96.43,0 -167.05,-24.04 -211.84,-72.26 -44.78,-48.23 -67.18,-117.12 -67.18,-206.76 0,-89.65 22.52,-158.54 67.8,-206.81 45.14,-48.16 115.58,-72.27 211.22,-72.27 96.42,0 167.27,24.11 212.44,72.27 45.15,48.27 67.8,117.16 67.8,206.81 0,89.65 -22.46,158.54 -67.24,206.76 -44.86,48.21 -115.83,72.26 -213,72.26z"/>
   <path class="fil1" d="M5703.05 5281.62l0 -535.57 112.99 0 5.64 56.53c26.36,-21.05 55.38,-37.7 87,-49.75 31.64,-11.99 65.55,-18.03 101.71,-18.03 38.35,0 68.33,6.22 89.8,18.66 21.49,12.42 37.83,29.53 49.15,51.39 24.9,-20.31 53.47,-37.15 85.9,-50.22 32.32,-13.22 71.17,-19.82 116.32,-19.82 61.82,0 107.32,15.83 136.71,47.46 29.41,31.58 44.11,80.15 44.11,145.7l0 353.65 -120.96 0 0 -341.18c0,-41.42 -8.65,-70.42 -25.95,-87.07 -17.33,-16.52 -45.54,-24.84 -84.75,-24.84 -25.59,0 -49.87,4.53 -72.88,13.58 -22.95,9.05 -42.71,22.65 -59.28,40.69 2.25,8.25 3.72,16.94 4.52,25.95 0.73,9.05 1.17,18.85 1.17,29.43l0 343.44 -114.11 0 0 -340.07c0,-39.17 -6.79,-67.8 -20.37,-85.86 -13.53,-18.11 -39.17,-27.16 -76.85,-27.16 -26.37,0 -51.4,6.25 -75.09,18.66 -23.73,12.42 -45.02,27.28 -63.81,44.66l0 389.77 -120.95 0z"/>
   <path class="fil1" d="M6929.24 5200.28c103.96,0 155.91,-65.53 155.91,-196.6 0,-63.21 -11.69,-108.3 -35.01,-134.98 -23.38,-26.74 -62.52,-40.13 -117.48,-40.13 -55.01,0 -100.96,18.84 -137.85,56.55l0 267.69c17.31,14.37 36.7,25.81 58.19,34.45 21.47,8.69 46.91,13.03 76.22,13.03zm-257.6 325.39l0 -779.6 106.22 0 6.81 53.13c24.03,-21.85 50.47,-38 79.05,-48.6 28.64,-10.52 62.53,-15.84 101.69,-15.84 76.85,0 136.76,20.92 179.66,62.72 42.94,41.78 64.42,110.94 64.42,207.36 0,96.37 -22.27,168.52 -66.69,216.29 -44.41,47.91 -105.05,71.77 -181.84,71.77 -64.8,0 -120.18,-15.05 -166.13,-45.14l0 277.91 -123.18 0z"/>
   <path class="fil1" d="M7585.62 5189c56.55,0 96.69,-13.77 120.36,-41.3 23.75,-27.47 35.56,-72.09 35.56,-133.82 0,-61.8 -11.81,-106.22 -35.56,-133.39 -23.67,-27.11 -63.81,-40.64 -120.36,-40.64 -55.74,0 -95.44,13.52 -119.14,40.64 -23.73,27.17 -35.66,71.58 -35.66,133.39 0,61.74 11.93,106.35 35.66,133.82 23.69,27.53 63.4,41.3 119.14,41.3zm0 103.9c-96.43,0 -167.04,-24.04 -211.82,-72.26 -44.78,-48.23 -67.2,-117.12 -67.2,-206.76 0,-89.65 22.53,-158.54 67.8,-206.81 45.17,-48.16 115.58,-72.27 211.22,-72.27 96.44,0 167.29,24.11 212.46,72.27 45.14,48.27 67.78,117.16 67.78,206.81 0,89.65 -22.45,158.54 -67.24,206.76 -44.85,48.21 -115.83,72.26 -213,72.26z"/>
   <path class="fil1" d="M8157.91 5292.91c-36.91,0 -72.15,-2.64 -105.68,-7.88 -33.53,-5.28 -61.19,-11.69 -83.03,-19.22l0 -103.9c25.63,9.73 53.84,17.31 84.75,22.52 30.91,5.33 60.27,7.96 88.11,7.96 42.16,0 72.38,-3.75 90.43,-11.32 18.06,-7.46 27.11,-22.16 27.11,-44.06 0,-15.79 -5.45,-28.21 -16.4,-37.26 -10.9,-9.05 -27.09,-17.38 -48.58,-24.86 -21.47,-7.58 -48.75,-16.57 -81.86,-27.09 -31.69,-10.6 -59.16,-22.1 -82.47,-34.51 -23.39,-12.42 -41.49,-28.39 -54.28,-47.98 -12.85,-19.58 -19.21,-45.21 -19.21,-76.85 0,-48.94 17.74,-86.82 53.1,-113.5 35.43,-26.8 92.27,-40.14 170.66,-40.14 30.84,0 60.2,2.25 88.11,6.73 27.83,4.53 51.51,10.21 71.16,17.02l0 102.73c-21.1,-8.25 -44.29,-14.69 -69.51,-19.15 -25.21,-4.53 -48.76,-6.79 -70.62,-6.79 -39.17,0 -68.71,3.43 -88.72,10.21 -19.89,6.73 -29.92,20.31 -29.92,40.64 0,21.04 10.41,35.97 31.08,44.59 20.68,8.69 54.02,20.58 99.97,35.62 42.22,12.78 75.76,26.37 100.6,40.69 24.84,14.26 42.7,31.45 53.66,51.4 10.89,19.94 16.38,45.7 16.38,77.4 0,52.73 -19.2,92.01 -57.63,118.08 -38.41,25.95 -94.16,38.92 -167.22,38.92z"/>
   <path class="fil1" d="M8526.05 4532.59l134.42 0 0 101.69 -134.42 0 0 -101.69zm10.09 749.06l0 -441.78 -81.33 0 11.32 -93.81 193.16 0 0 535.59 -123.16 0z"/>
   <path class="fil1" d="M9004.47 5292.91c-57.21,0 -99.97,-15.24 -128.17,-45.7 -28.28,-30.54 -42.41,-72.15 -42.41,-124.9l0 -280.16 -79.13 0 0 -96.07 79.13 0 0 -123.12 122 -37.32 0 160.43 142.34 0 -7.89 96.07 -134.44 0 0 273.43c0,30.91 7.16,52.51 21.47,64.92 14.33,12.49 37.71,18.67 70.07,18.67 20.32,0 41.79,-3.73 64.37,-11.31l0 87c-29.31,12.05 -65.17,18.05 -107.33,18.05z"/>
   <path class="fil1" d="M9294.71 4982.21l283.62 0 0 -37.26c0,-36.9 -10.16,-65.66 -30.48,-86.46 -20.37,-20.68 -54.7,-31.08 -102.87,-31.08 -57.21,0 -96.54,12.42 -118.03,37.33 -21.47,24.84 -32.25,64 -32.25,117.48zm176.29 310.71c-93.44,0 -165.69,-23 -216.98,-68.89 -51.2,-45.94 -76.79,-116.38 -76.79,-211.29 0,-85.83 21.84,-153.64 65.53,-203.38 43.7,-49.74 109.96,-74.53 198.86,-74.53 81.38,0 142.51,21.3 183.58,63.83 41.05,42.57 61.56,97.34 61.56,164.33l0 99.43 -392.04 0c6.07,52.02 24.9,87.75 56.55,107.38 31.56,19.58 79.85,29.31 144.66,29.31 27.09,0 54.94,-2.64 83.51,-7.89 28.63,-5.2 53.54,-11.99 74.58,-20.31l0 90.36c-24.11,10.6 -51.76,18.49 -83.03,23.69 -31.27,5.3 -64.61,7.94 -99.97,7.94z"/>
   <path class="fil1" d="M10179.36 5292.91c-61.79,0 -114.54,-8.63 -158.23,-25.99l0 -103.92c18.13,7.53 39.41,13.78 63.89,18.61 24.49,4.97 48.76,7.41 72.87,7.41 50.48,0 85.67,-10.41 105.67,-31.08 19.89,-20.7 29.94,-54.03 29.94,-100.05l0 -503.89 123.16 0 0 524.25c0,69.28 -19.82,122.44 -59.35,159.34 -39.54,36.9 -98.89,55.31 -177.95,55.31z"/>
   <path class="fil1" d="M10812.07 5189c56.53,0 96.68,-13.77 120.35,-41.3 23.75,-27.47 35.56,-72.09 35.56,-133.82 0,-61.8 -11.81,-106.22 -35.56,-133.39 -23.67,-27.11 -63.81,-40.64 -120.35,-40.64 -55.75,0 -95.45,13.52 -119.12,40.64 -23.82,27.17 -35.68,71.58 -35.68,133.39 0,61.74 11.86,106.35 35.68,133.82 23.67,27.53 63.37,41.3 119.12,41.3zm0 103.9c-96.44,0 -167.05,-24.04 -211.83,-72.26 -44.78,-48.23 -67.2,-117.12 -67.2,-206.76 0,-89.65 22.54,-158.54 67.8,-206.81 45.17,-48.16 115.58,-72.27 211.23,-72.27 96.43,0 167.28,24.11 212.45,72.27 45.15,48.27 67.78,117.16 67.78,206.81 0,89.65 -22.44,158.54 -67.24,206.76 -44.85,48.21 -115.83,72.26 -212.99,72.26z"/>
   <path class="fil1" d="M11238.38 4532.59l134.42 0 0 101.69 -134.42 0 0 -101.69zm10.16 749.06l0 -441.78 -81.38 0 11.31 -93.81 193.24 0 0 535.59 -123.17 0z"/>
   <path class="fil1" d="M11514.64 5281.62l0 -535.57 113.01 0 5.64 56.53c24.16,-18.84 52.92,-34.88 86.45,-47.96 33.47,-13.22 70.61,-19.82 111.3,-19.82 69.27,0 119.74,16.19 151.38,48.57 31.56,32.42 47.42,82.84 47.42,151.37l0 346.87 -122.01 0 0 -341.18c0,-41.42 -8.44,-70.42 -25.45,-87.07 -16.9,-16.52 -48.78,-24.84 -95.45,-24.84 -27.91,0 -55.19,5.68 -81.86,17.01 -26.74,11.26 -49.13,25.95 -67.24,44.06l0 392.02 -123.18 0z"/>
   <path class="fil1" d="M12368.22 5292.91c-57.21,0 -99.97,-15.24 -128.18,-45.7 -28.27,-30.54 -42.41,-72.15 -42.41,-124.9l0 -280.16 -79.11 0 0 -96.07 79.11 0 0 -123.12 122.01 -37.32 0 160.43 142.32 0 -7.88 96.07 -134.44 0 0 273.43c0,30.91 7.16,52.51 21.48,64.92 14.32,12.49 37.7,18.67 70.06,18.67 20.32,0 41.79,-3.73 64.37,-11.31l0 87c-29.32,12.05 -65.17,18.05 -107.33,18.05z"/>
   <path class="fil1" d="M12952.38 4939.32l173.94 0c48.94,0 85.91,-12.86 110.75,-38.44 24.85,-25.57 37.27,-60.28 37.27,-103.95 0,-46.69 -11.81,-82.85 -35.56,-108.44 -23.67,-25.63 -59.28,-38.41 -106.7,-38.41l-179.71 0 0 289.24zm-123.18 342.34l0 -727.65 324.31 0c55.67,0 101.62,10.6 137.85,31.64 36.17,21.1 62.85,49.93 80.23,86.46 17.3,36.52 25.92,78.13 25.92,124.82 0,72.31 -22.39,130.34 -67.18,174.02 -44.8,43.62 -105.31,65.46 -181.37,65.46l-196.58 0 0 245.25 -123.18 0z"/>
   <path class="fil1" d="M13492.98 5281.62l0 -535.57 113.01 0 6.78 62.16c25.59,-16.57 56.11,-31.63 91.47,-45.17 35.44,-13.58 70.44,-23 105.13,-28.24l0 93.73c-21.11,3.8 -43.93,9.24 -68.41,16.4 -24.47,7.22 -47.61,15.04 -69.44,23.73 -21.84,8.69 -40.33,17.57 -55.39,26.55l0 386.4 -123.16 0z"/>
   <path class="fil1" d="M14147.03 5189c56.53,0 96.68,-13.77 120.35,-41.3 23.75,-27.47 35.56,-72.09 35.56,-133.82 0,-61.8 -11.81,-106.22 -35.56,-133.39 -23.67,-27.11 -63.81,-40.64 -120.35,-40.64 -55.75,0 -95.45,13.52 -119.12,40.64 -23.75,27.17 -35.68,71.58 -35.68,133.39 0,61.74 11.93,106.35 35.68,133.82 23.67,27.53 63.37,41.3 119.12,41.3zm0 103.9c-96.44,0 -167.05,-24.04 -211.83,-72.26 -44.78,-48.23 -67.2,-117.12 -67.2,-206.76 0,-89.65 22.54,-158.54 67.8,-206.81 45.17,-48.16 115.58,-72.27 211.23,-72.27 96.43,0 167.28,24.11 212.45,72.27 45.14,48.27 67.78,117.16 67.78,206.81 0,89.65 -22.44,158.54 -67.24,206.76 -44.85,48.21 -115.83,72.26 -212.99,72.26z"/>
   <path class="fil1" d="M14573.57 5281.62l0 -439.51 -78.01 0 0 -96.06 78.01 0 0 -65.47c0,-53.47 14.81,-96.61 44.55,-129.35 29.79,-32.8 74.04,-49.15 132.77,-49.15 21.85,0 41.85,1.67 59.91,5.03 18.11,3.42 34.68,8.06 49.74,14.14l0 88.15c-23.36,-8.32 -47.1,-12.48 -71.17,-12.48 -35.48,0 -59.95,6.44 -73.41,19.29 -13.59,12.72 -20.38,34.57 -20.38,65.46l0 64.37 140.13 0 -5.64 96.06 -134.49 0 0 439.51 -122.01 0z"/>
   <path class="fil1" d="M14895.51 4532.59l134.42 0 0 101.69 -134.42 0 0 -101.69zm10.09 749.06l0 -439.59 -75.57 0 5.57 -96 193.16 0 0 535.59 -123.16 0z"/>
   <path class="fil1" d="M15301.88 5292.91c-43.76,0 -76.85,-10.76 -99.49,-32.19 -22.53,-21.47 -33.91,-57.03 -33.91,-106.77l0 -633.84 123.18 0 0 622.58c0,21.06 3.78,35.37 11.38,42.89 7.46,7.53 18.78,11.32 33.89,11.32 18.05,0 35.37,-2.26 51.95,-6.79l0 89.22c-14.37,5.33 -28.08,8.94 -41.3,10.78 -13.16,1.82 -28.45,2.8 -45.7,2.8z"/>
   <path class="fil1" d="M15572.92 4982.21l283.59 0 0 -37.26c0,-36.9 -10.15,-65.66 -30.48,-86.46 -20.36,-20.68 -54.68,-31.08 -102.84,-31.08 -57.21,0 -96.56,12.42 -118.04,37.33 -21.47,24.84 -32.24,64 -32.24,117.48zm176.29 310.71c-93.44,0 -165.71,-23 -216.98,-68.89 -51.22,-45.94 -76.79,-116.38 -76.79,-211.29 0,-85.83 21.83,-153.64 65.53,-203.38 43.68,-49.74 109.94,-74.53 198.86,-74.53 81.37,0 142.49,21.3 183.56,63.83 41.06,42.57 61.55,97.34 61.55,164.33l0 99.43 -392.02 0c6.05,52.02 24.9,87.75 56.53,107.38 31.58,19.58 79.85,29.31 144.64,29.31 27.1,0 54.94,-2.64 83.52,-7.89 28.64,-5.2 53.54,-11.99 74.59,-20.31l0 90.36c-24.11,10.6 -51.76,18.49 -83.03,23.69 -31.27,5.3 -64.61,7.94 -99.97,7.94z"/>
   <path class="fil1" d="M16260.97 5292.91c-36.89,0 -72.13,-2.64 -105.66,-7.88 -33.53,-5.28 -61.19,-11.69 -83.03,-19.22l0 -103.9c25.63,9.73 53.84,17.31 84.75,22.52 30.89,5.33 60.26,7.96 88.11,7.96 42.15,0 72.38,-3.75 90.43,-11.32 18.04,-7.46 27.1,-22.16 27.1,-44.06 0,-15.79 -5.45,-28.21 -16.39,-37.26 -10.9,-9.05 -27.11,-17.38 -48.58,-24.86 -21.47,-7.58 -48.78,-16.57 -81.86,-27.09 -31.71,-10.6 -59.18,-22.1 -82.49,-34.51 -23.36,-12.42 -41.49,-28.39 -54.27,-47.98 -12.85,-19.58 -19.22,-45.21 -19.22,-76.85 0,-48.94 17.75,-86.82 53.13,-113.5 35.42,-26.8 92.26,-40.14 170.66,-40.14 30.84,0 60.2,2.25 88.11,6.73 27.83,4.53 51.51,10.21 71.15,17.02l0 102.73c-21.11,-8.25 -44.3,-14.69 -69.5,-19.15 -25.23,-4.53 -48.78,-6.79 -70.62,-6.79 -39.16,0 -68.71,3.43 -88.73,10.21 -19.88,6.73 -29.93,20.31 -29.93,40.64 0,21.04 10.41,35.97 31.08,44.59 20.7,8.69 54.03,20.58 100,35.62 42.22,12.78 75.74,26.37 100.6,40.69 24.84,14.26 42.7,31.45 53.64,51.4 10.9,19.94 16.4,45.7 16.4,77.4 0,52.73 -19.21,92.01 -57.63,118.08 -38.44,25.95 -94.18,38.92 -167.24,38.92z"/>
   <polygon class="fil1" points="437.87,911.28 437.87,3323.11 829.21,3323.11 829.21,2189.92 1783.75,2189.92 1783.75,1845.61 829.21,1845.61 829.21,1245.18 1783.75,1245.18 1783.75,911.28 "/>
   <polygon class="fil1" points="2405.43,3323.2 2065.72,3323.2 2065.72,896.25 2405.43,896.25 "/>
   <path class="fil1" d="M3521.43 2091.95c-253.2,0 -458.41,214.89 -458.41,493.73 0,278.83 205.22,493.71 458.41,493.71 250.15,0 458.42,-214.88 458.42,-493.71 0,-278.84 -205.23,-493.73 -458.42,-493.73zm-577.12 -73.8c153.95,-150.69 359.18,-230.67 574,-230.67 221.07,0 423.24,79.98 580.25,233.91 154,150.71 240.33,346.34 240.33,560.98 0,221.44 -83.27,416.81 -237.03,564.27 -160.32,153.95 -362.49,237.41 -583.56,237.41 -214.83,0 -420.05,-83.46 -574,-234.17 -157.07,-153.95 -240.33,-349.37 -240.33,-567.51 0,-214.64 83.27,-413.5 240.33,-564.22z"/>
   <path class="fil1" d="M5350.6 2091.95c-253.2,0 -458.43,214.89 -458.43,493.73 0,278.83 205.24,493.71 458.43,493.71 250.13,0 458.42,-214.88 458.42,-493.71 0,-278.84 -205.24,-493.73 -458.42,-493.73zm-577.12 -73.8c153.94,-150.69 359.18,-230.67 574,-230.67 221.06,0 423.05,79.98 580.25,233.91 154,150.71 240.33,346.34 240.33,560.98 0,221.44 -83.29,416.81 -237.24,564.27 -160.3,153.95 -362.28,237.41 -583.34,237.41 -214.83,0 -420.06,-83.46 -574,-234.17 -157.07,-153.95 -240.36,-349.37 -240.36,-567.51 0,-214.64 83.29,-413.5 240.36,-564.22z"/>
   <path class="fil1" d="M7167.88 1787.4c96.19,0 189.08,22.34 279.03,67.24l-121.95 288.68c-64,-44.91 -131.44,-60.89 -208.34,-60.89 -240.48,0 -317.39,189.19 -317.39,589.67l0 651.16 -339.9 0 0 -1487.71 339.9 0 0 240.35c73.61,-195.44 189.07,-288.5 368.65,-288.5z"/>
   <path class="fil1" d="M8167.65 2995.92c219.23,0 374.46,-10.14 468.82,-74.33 94.55,-64 151.94,-175.42 151.94,-306.86 0,-151.92 -64.15,-269.96 -185.59,-334.07 -91.04,-47.13 -199.04,-53.85 -317.2,-53.85l-117.97 0 -134.86 0 0 769.12 134.86 0zm13.46 -1065.94c354.28,0 512.83,-81.07 512.83,-333.89 0,-300.3 -165.44,-357.58 -512.83,-357.58l-148.31 0 0 691.47 148.31 0zm-533 -1018.71l607.35 0c256.32,0 448.44,10.05 596.96,121.28 148.5,108.18 236.11,293.57 236.11,509.51 0,256.32 -121.39,435.16 -347.36,502.67 279.94,43.8 451.87,269.89 451.87,593.44 0,199.05 -74.16,381.39 -195.55,502.67 -172.02,172.13 -401.59,182.34 -738.78,182.34l-610.6 0 0 -2411.9z"/>
   <path class="fil1" d="M10243.59 1787.4c96.19,0 189.27,22.34 279.03,67.24l-121.95 288.68c-64,-44.91 -131.44,-60.89 -208.34,-60.89 -240.47,0 -317.39,189.19 -317.39,589.67l0 651.16 -339.88 0 0 -1487.71 339.88 0 0 240.35c73.61,-195.44 189.07,-288.5 368.65,-288.5z"/>
   <path class="fil1" d="M11035.96 3323.01l-339.9 0 0 -1484.4 339.9 0 0 1484.4zm-169.97 -2337.18c118.7,0 211.59,89.83 211.59,211.65 0,121.76 -92.89,214.84 -211.59,214.84 -118.71,0 -214.9,-99.43 -214.9,-214.84 0,-115.46 96.19,-211.65 214.9,-211.65z"/>
   <path class="fil1" d="M12104.53 2088.74c-256.51,0 -413.58,186.12 -413.58,500.27 0,317.37 150.53,493.73 407.02,493.73 237.41,0 413.75,-192.39 413.75,-506.64 0,-311.02 -154,-487.36 -407.19,-487.36zm737.3 -1192.68l0 2427.14 -339.76 0 0 -192.31c-121.78,169.78 -282.15,253.01 -490.62,253.01 -413.56,0 -676.43,-298.1 -676.43,-804.74 0,-477.51 275.78,-791.64 666.78,-791.64 243.75,0 419.93,105.6 500.27,294.86l0 -1186.31 339.76 0z"/>
   <path class="fil1" d="M13913.04 2088.78c-256.5,0 -413.56,185.95 -413.56,500.27 0,317.2 150.71,493.54 407.2,493.54 233.92,0 413.56,-192.37 413.56,-506.64 0,-310.83 -154.01,-487.17 -407.2,-487.17zm-22.34 1933.23c-420.1,0 -673.29,-195.61 -676.61,-474.45l365.54 0c9.67,125.06 118.71,195.43 317.44,195.43 311.02,0 407.15,-137.79 410.26,-416.69l3.24 -195.56c-121.76,170 -282.14,253.2 -490.6,253.2 -413.56,0 -676.42,-298.1 -676.42,-804.73 0,-477.52 275.77,-791.84 666.76,-791.84 243.77,0 420.11,105.8 500.27,295.05l0 -243.78 339.96 0 0 1391.53c0,554.62 -185.95,791.84 -759.83,791.84z"/>
   <path class="fil1" d="M15732.54 2075.96c-221.26,0 -355.75,105.78 -410.43,327.04l811.1 0c-25.46,-214.89 -166.57,-327.04 -400.67,-327.04zm-432.85 554.61c16.05,278.83 173.11,442.45 419.95,442.45 218.12,0 355.93,-86.52 464.95,-291.73l285.44 160.3c-166.92,298.11 -410.44,442.46 -743.86,442.46 -474.45,0 -778.93,-314.27 -778.93,-798.38 0,-461.54 317.2,-798.2 778.93,-798.2 477.69,0 759.63,285.26 759.63,778.93l0 64.19 -1186.12 0z"/>
   <path class="fil1" d="M17735.51 1954.33c124.88,0.19 241.94,58.55 317.2,157.82l2.57 1.77 9.61 15.29c5.44,8.02 10.53,16.34 15.48,25.08l298.65 480.08 7.95 12.55 0.55 0.74c40.57,59.41 107.63,94.89 179.47,94.89l435.54 0c72.13,-0.17 139.37,-35.66 179.94,-95.63l0.56 -0.92 7.1 -11.8 1.4 -2.4 297.44 -477.51c5.07,-8.75 10.34,-17.44 15.96,-25.63l9.68 -14.74 1.96 -1.23c74.89,-99.42 192.3,-158.36 317.56,-158.17l463.19 0c124.89,-0.19 242.12,58.55 317.2,157.8l3.32 1.96 9.41 15.66c5.26,7.65 10.34,15.98 15.31,24.35l298.46 479.91 7.29 11.8 0.67 0.92c40.57,59.79 107.62,95.63 179.83,95.63l187.79 0 303.35 -303.79 -2201.72 -2201.84 -1717.41 1717.6 34.69 -0.19z"/>
   <path class="fil1" d="M21128.86 2923.16c-130.89,0 -253.03,-64.17 -327.37,-171.94l-2.2 -3.12c-4.53,-6.54 -9.1,-13.65 -13.63,-21.79l-299.57 -481.17c-3.07,-5.44 -6.2,-10.57 -9.44,-15.29l-0.73 -0.92c-40.57,-58.68 -107.26,-93.79 -178.54,-93.79l-463.31 0c-71.47,0 -138.53,35.29 -179.1,94.34l-1.22 1.65 -8.58 14.02 -1.84 3.25 -297.54 477.92 -8.02 13.04 -0.19 0.73 -5.62 8.02c-73.99,109.77 -197.21,174.89 -329.57,175.05l-435.35 0.19c-131.07,-0.19 -253.2,-64.36 -327.54,-172.13l-2.2 -3.12c-4.53,-6.91 -9.13,-14.02 -13.84,-21.79l-299.39 -481.17c-2.87,-5.08 -5.81,-10.04 -8.88,-14.57l-0.73 -1.1c-40.74,-59.06 -107.62,-94.34 -179.09,-94.34l-215.2 0 -303.74 303.79 2201.84 2201.84 1717.47 -1717.61 -6.9 0z"/>
   <path class="fil1" d="M16652.79 905.51c-215.25,0 -377.33,173.05 -377.33,376.49 0,209.2 167.94,376.24 376.23,376.24 206.51,0 374.47,-167.05 374.47,-376.24 0,-204.55 -163.07,-376.49 -372.45,-376.49l-0.92 0zm-1.1 62.9c175.79,0 306.67,144.53 306.67,313.59 0,175.74 -137.6,313.16 -306.67,313.16 -169.97,0 -308.45,-139.39 -308.45,-313.16 0,-171.08 132.67,-313.59 307.54,-313.59l0.91 0zm-162.15 99.24l0 423.54 85.61 0 0 -171.07 65.83 0c79.61,0 85.42,38.37 88.37,70.73 3.05,30.53 5.98,86.52 13.75,100.34l82.55 0c-7.77,-20.74 -7.77,-28.69 -12.72,-105.05 -3.8,-59.11 -25.65,-83.64 -63.95,-97.42 57.03,-24.59 71.77,-64.91 71.77,-103.28 0,-92.15 -85.43,-117.79 -152.36,-117.79l-178.86 0zm165.28 60.89c24.52,0 81.43,0 81.43,62.9 0,71.83 -64.91,70.73 -89.44,71.83l-71.65 0 0 -134.73 79.67 0z"/>
  </g>
 </g>
</svg>
