<?xml version="1.0" encoding="utf-8"?>
<!-- Generator: Adobe Illustrator 24.0.3, SVG Export Plug-In . SVG Version: 6.00 Build 0)  -->
<svg version="1.1" id="Ebene_1" xmlns="http://www.w3.org/2000/svg" xmlns:xlink="http://www.w3.org/1999/xlink" x="0px" y="0px"
	 viewBox="0 0 213.09 236.55" style="enable-background:new 0 0 213.09 236.55;" xml:space="preserve">
<style type="text/css">
	.st0{fill:#FFFFFF;}
	.st1{clip-path:url(#SVGID_2_);}
	.st2{clip-path:url(#SVGID_4_);}
	.st3{clip-path:url(#SVGID_6_);fill:#647A84;}
	.st4{clip-path:url(#SVGID_8_);}
	.st5{clip-path:url(#SVGID_10_);fill:#AFCA0B;}
	.st6{clip-path:url(#SVGID_12_);fill:url(#SVGID_13_);}
	.st7{clip-path:url(#SVGID_2_);fill:#FFDE14;}
	.st8{clip-path:url(#SVGID_15_);fill:url(#SVGID_16_);}
	.st9{clip-path:url(#SVGID_18_);fill:#AFCA11;}
</style>
<g>
	<g>
		<path class="st0" d="M138.45,41.04c20.97,16.17,40.47,36.01,50.47,49.9c13.62,19.01,20.96,33.32,20.52,50.2
			c-0.43,16-24.34,35.94-50.83,50.76c-42.42,23.99-70.05,30.8-96.29,35.66c-37.01,7.38-42.06-3.67-48.39-23.71
			C7.6,183.8,3.29,146.1,7.53,109.94c4.17-36.52,15.21-82.97,36.26-97.65c15.8-10.96,32.32-7.1,51.59,2.3
			C116.38,24.61,138.45,41.04,138.45,41.04"/>
	</g>
	<g>
		<defs>
			<rect id="SVGID_1_" x="22.37" y="29.84" width="181.41" height="181.41"/>
		</defs>
		<clipPath id="SVGID_2_">
			<use xlink:href="#SVGID_1_"  style="overflow:visible;"/>
		</clipPath>
		<g class="st1">
			<g>
				<defs>
					<rect id="SVGID_3_" x="54.11" y="146.83" width="120.25" height="24.34"/>
				</defs>
				<clipPath id="SVGID_4_">
					<use xlink:href="#SVGID_3_"  style="overflow:visible;"/>
				</clipPath>
				<g class="st2">
					<defs>
						<rect id="SVGID_5_" x="54.11" y="146.83" width="120.25" height="24.34"/>
					</defs>
					<clipPath id="SVGID_6_">
						<use xlink:href="#SVGID_5_"  style="overflow:visible;"/>
					</clipPath>
					<path class="st3" d="M163.69,151.53c-0.88,0-1.9,0.25-3.08,0.74v-0.68h-1.79v14.98h1.87v-12.61c0.96-0.46,1.86-0.68,2.68-0.68
						c1.3,0,1.95,0.64,1.95,1.92v11.37h1.87v-11.37c0-0.44-0.04-0.79-0.13-1.05c0.95-0.58,1.9-0.87,2.84-0.87
						c1.28,0,1.92,0.64,1.92,1.92v11.37h1.9V155c0-1.11-0.32-1.96-0.95-2.57c-0.63-0.61-1.55-0.91-2.74-0.91
						c-1.19,0-2.4,0.36-3.61,1.08C165.79,151.89,164.88,151.53,163.69,151.53 M155.13,151.63c-0.18,0.05-0.31,0.09-0.41,0.12
						c-0.1,0.03-0.24,0.09-0.42,0.2c-0.18,0.11-0.3,0.17-0.34,0.2c-0.04,0.03-0.18,0.12-0.4,0.28c-0.22,0.16-0.36,0.25-0.41,0.29
						v-1.13h-1.79v14.98h1.87V154.5c0.53-0.37,0.87-0.61,1.03-0.71c0.51-0.33,1.08-0.5,1.71-0.5h0.9v-1.79h-0.66
						C155.75,151.5,155.39,151.55,155.13,151.63 M139.47,162.74c0,1.25,0.35,2.24,1.05,2.97c0.7,0.74,1.77,1.11,3.21,1.11
						c1.44,0,2.51-0.37,3.21-1.11c0.7-0.74,1.05-1.73,1.05-2.97v-7.35c0-1.25-0.35-2.24-1.05-2.97c-0.7-0.74-1.77-1.11-3.21-1.11
						c-1.44,0-2.51,0.37-3.21,1.11c-0.7,0.74-1.05,1.73-1.05,2.97V162.74z M146.15,162.72c0,1.65-0.81,2.47-2.42,2.47
						c-1.62,0-2.42-0.82-2.42-2.47v-7.29c0-1.63,0.81-2.45,2.42-2.45c1.61,0,2.42,0.82,2.42,2.45V162.72z M129.96,166.56h1.87v-7.71
						h5.29v-1.69h-5.29v-6.63h5.58v-1.66h-7.45V166.56z M121.3,151.63c-0.18,0.05-0.31,0.09-0.41,0.12c-0.1,0.03-0.24,0.09-0.42,0.2
						c-0.18,0.11-0.3,0.17-0.34,0.2c-0.04,0.03-0.18,0.12-0.4,0.28c-0.22,0.16-0.36,0.25-0.41,0.29v-1.13h-1.79v14.98h1.87V154.5
						c0.53-0.37,0.87-0.61,1.03-0.71c0.51-0.33,1.08-0.5,1.71-0.5h0.9v-1.79h-0.66C121.93,151.5,121.57,151.55,121.3,151.63
						 M107.64,155.42c0-1.65,0.82-2.47,2.45-2.47c1.63,0,2.45,0.83,2.45,2.47v3.03h-4.9V155.42z M110.75,166.69
						c1.21,0,2.25-0.14,3.13-0.42v-1.74c-1.11,0.32-2.18,0.47-3.21,0.47c-1.04,0-1.8-0.19-2.29-0.58c-0.49-0.39-0.74-0.97-0.74-1.76
						V160h6.69v-4.58c0-1.25-0.35-2.24-1.04-2.99c-0.69-0.75-1.76-1.12-3.2-1.12c-1.44,0-2.51,0.37-3.22,1.12
						c-0.71,0.75-1.07,1.74-1.07,2.99v7.32C105.8,165.38,107.45,166.69,110.75,166.69 M100.56,151.58h-2.47
						c-1.23,0-2.21,0.35-2.95,1.04c-0.74,0.69-1.11,1.66-1.11,2.91v7.34c0,1.21,0.31,2.14,0.94,2.79c0.62,0.65,1.52,0.97,2.7,0.97
						c1.18,0,2.16-0.32,2.95-0.95v0.87h1.82l0.44-18.95H101L100.56,151.58z M100.56,164.06c-0.63,0.6-1.47,0.9-2.53,0.9
						c-1.42,0-2.13-0.74-2.13-2.21v-7.19c0-1.51,0.83-2.26,2.5-2.26h2.16V164.06z M84.39,155.42c0-1.65,0.82-2.47,2.45-2.47
						s2.45,0.83,2.45,2.47v3.03h-4.9V155.42z M87.5,166.69c1.21,0,2.25-0.14,3.13-0.42v-1.74c-1.11,0.32-2.18,0.47-3.21,0.47
						c-1.04,0-1.8-0.19-2.29-0.58c-0.49-0.39-0.74-0.97-0.74-1.76V160h6.69v-4.58c0-1.25-0.35-2.24-1.04-2.99
						c-0.69-0.75-1.76-1.12-3.2-1.12c-1.44,0-2.51,0.37-3.22,1.12c-0.71,0.75-1.07,1.74-1.07,2.99v7.32
						C82.55,165.38,84.2,166.69,87.5,166.69 M77.31,166.8c0,0.72-0.14,1.24-0.42,1.55c-0.28,0.32-0.73,0.47-1.34,0.47
						c-0.19,0-0.43-0.02-0.71-0.05v1.68c0.26,0.05,0.52,0.08,0.76,0.08c1.18,0,2.07-0.33,2.67-0.99c0.61-0.66,0.91-1.58,0.91-2.75
						v-15.11h-1.87V166.8z M79.39,148.68c0-0.81-0.38-1.21-1.14-1.21s-1.15,0.4-1.15,1.21c0,0.81,0.38,1.21,1.15,1.21
						S79.39,149.49,79.39,148.68 M62.25,151.58h-1.79v14.98h1.87v-12.61c0.97-0.46,1.86-0.68,2.69-0.68c1.3,0,1.95,0.64,1.95,1.92
						v11.37h1.87V155c0-1.11-0.32-1.96-0.95-2.57s-1.43-0.91-2.41-0.91s-2.05,0.25-3.22,0.74V151.58z M54.96,166.56h1.87v-14.87
						h-1.87V166.56z M57.04,148.68c0-0.81-0.38-1.21-1.14-1.21c-0.76,0-1.15,0.4-1.15,1.21c0,0.81,0.38,1.21,1.15,1.21
						C56.66,149.9,57.04,149.49,57.04,148.68"/>
				</g>
			</g>
		</g>
		<g class="st1">
			<g>
				<defs>
					<rect id="SVGID_7_" x="54.11" y="121.56" width="121.28" height="23.14"/>
				</defs>
				<clipPath id="SVGID_8_">
					<use xlink:href="#SVGID_7_"  style="overflow:visible;"/>
				</clipPath>
				<g class="st4">
					<defs>
						<rect id="SVGID_9_" x="54.11" y="121.56" width="121.28" height="23.14"/>
					</defs>
					<clipPath id="SVGID_10_">
						<use xlink:href="#SVGID_9_"  style="overflow:visible;"/>
					</clipPath>
					<path class="st5" d="M162.28,129.36c0,2.03,1.01,3.61,3.02,4.73l3.33,1.8c0.54,0.29,0.91,0.56,1.1,0.79
						c0.2,0.24,0.3,0.6,0.3,1.07v0.47c0,1.02-0.89,1.52-2.67,1.52c-1.78,0-3.38-0.3-4.79-0.9v4.51c1.14,0.48,2.83,0.72,5.08,0.72
						s4-0.45,5.24-1.35c1.24-0.9,1.87-2.19,1.87-3.87v-1.93c0-1.87-0.85-3.26-2.55-4.2l-3.55-1.99c-0.66-0.35-1.09-0.67-1.29-0.95
						c-0.2-0.28-0.3-0.71-0.3-1.29v-0.47c0-0.48,0.14-0.85,0.44-1.1c0.29-0.26,0.85-0.39,1.68-0.39c1.62,0,3.06,0.27,4.32,0.81
						v-4.48c-1.04-0.44-2.61-0.65-4.71-0.65c-2.1,0-3.72,0.45-4.84,1.35c-1.12,0.9-1.68,2.18-1.68,3.84V129.36z M152.94,126.65
						l1.49,8.33h-2.92L152.94,126.65z M160.46,143.91l-4.17-21.55h-6.5l-4.23,21.55h4.45l0.84-4.98h4.26l0.9,4.98H160.46z
						 M134.19,143.91h10.48v-3.92h-5.75v-17.63h-4.73V143.91z M118.72,138.84c0,1.66,0.58,2.94,1.73,3.86
						c1.15,0.91,2.84,1.37,5.05,1.37c2.22,0,4.14-0.44,5.75-1.31v-10.42h-4.54v7.28c-0.33,0.17-0.8,0.25-1.41,0.25
						c-0.61,0-1.07-0.13-1.38-0.39c-0.31-0.26-0.47-0.64-0.47-1.14v-10.23c0-0.5,0.22-0.89,0.65-1.18c0.43-0.29,1.28-0.43,2.52-0.43
						c1.24,0,2.49,0.24,3.73,0.72v-4.42c-1.18-0.39-2.64-0.59-4.39-0.59c-2.32,0-4.11,0.48-5.36,1.45c-1.25,0.96-1.88,2.26-1.88,3.9
						V138.84z M110.68,143.91h4.73v-21.55h-4.73V143.91z M101.5,128.3l-2.15-5.94h-5.04l4.6,10.82l-4.6,10.73h5.07l2.11-5.88
						l1.99,5.88h5.07l-4.63-10.73l4.63-10.82h-5.04L101.5,128.3z M81.37,143.91h10.92v-4.04h-6.25v-4.85h5.41v-4.04h-5.41v-4.57
						h6.25v-4.04H81.37V143.91z M69.41,143.91h10.48v-3.92h-5.75v-17.63h-4.73V143.91z M54.75,143.91h4.7v-6.22h2.33
						c1.68,0,3-0.4,3.96-1.21c0.96-0.81,1.45-2,1.45-3.58v-5.75c0-1.57-0.48-2.77-1.45-3.58c-0.96-0.81-2.29-1.21-3.96-1.21h-7.03
						V143.91z M62.53,132.34c0,0.87-0.45,1.31-1.34,1.31h-1.74v-7.25h1.74c0.89,0,1.34,0.43,1.34,1.31V132.34z"/>
				</g>
				<g class="st4">
					<defs>
						<path id="SVGID_11_" d="M168.62,135.89c0.54,0.29,0.91,0.55,1.1,0.79c0.2,0.24,0.3,0.6,0.3,1.07v0.47
							c0,1.02-0.89,1.52-2.67,1.52c-1.78,0-3.38-0.3-4.79-0.9v4.51c1.14,0.48,2.83,0.71,5.08,0.71c2.25,0,4-0.45,5.24-1.35
							c1.24-0.9,1.87-2.19,1.87-3.87v-1.93c0-0.11-0.03-0.21-0.04-0.31c-2.3-0.47-4.7-0.91-7.21-1.32L168.62,135.89z M54.75,136.32
							v7.59h4.7v-6.22h2.33c1.68,0,3-0.4,3.96-1.21c0.65-0.54,1.06-1.28,1.27-2.17C62.67,134.9,58.57,135.57,54.75,136.32
							 M69.41,134v9.91h10.48v-3.92h-5.75v-6.56C72.53,133.61,70.96,133.8,69.41,134 M145.57,143.91h4.45l0.84-4.97h4.26l0.9,4.97
							h4.45l-1.92-9.92c-1.44-0.18-2.9-0.36-4.39-0.52l0.27,1.52h-2.92l0.3-1.77c-1.34-0.14-2.7-0.27-4.07-0.39L145.57,143.91z
							 M81.37,132.73v11.18h10.92v-4.04h-6.25v-4.85h5.41V132C88,132.2,84.64,132.44,81.37,132.73 M134.19,143.91h10.48v-3.92h-5.75
							v-7.84c-1.56-0.1-3.13-0.19-4.73-0.27V143.91z M98.28,131.68l0.64,1.5l-4.6,10.73h5.07l2.11-5.88l1.99,5.88h5.07l-4.63-10.73
							l0.73-1.71C102.51,131.52,100.38,131.6,98.28,131.68 M118.72,138.84c0,1.66,0.58,2.94,1.73,3.86
							c1.15,0.91,2.84,1.37,5.05,1.37s4.14-0.43,5.75-1.31v-10.42h-4.54v7.28c-0.33,0.17-0.8,0.25-1.42,0.25
							c-0.61,0-1.07-0.13-1.38-0.39c-0.31-0.26-0.47-0.64-0.47-1.13v-6.87c-1.56-0.04-3.14-0.06-4.73-0.08V138.84z M110.68,131.39
							v12.52h4.73v-12.53c-0.47,0-0.93-0.01-1.4-0.01C112.89,131.37,111.79,131.38,110.68,131.39"/>
					</defs>
					<clipPath id="SVGID_12_">
						<use xlink:href="#SVGID_11_"  style="overflow:visible;"/>
					</clipPath>
					
						<radialGradient id="SVGID_13_" cx="-34.4804" cy="260.2852" r="0.687" gradientTransform="matrix(32.166 0 0 -32.166 1223.5194 8516.6758)" gradientUnits="userSpaceOnUse">
						<stop  offset="0" style="stop-color:#AFCA0B"/>
						<stop  offset="9.340660e-04" style="stop-color:#AFCA0B"/>
						<stop  offset="1" style="stop-color:#95C11F"/>
					</radialGradient>
					<rect x="54.75" y="131.37" class="st6" width="120" height="12.7"/>
				</g>
			</g>
		</g>
		<path class="st7" d="M53.11,77.58h-4.96c-0.67,0-1.05,0.36-1.26,0.91c-0.29,1.04-0.55,2.09-0.79,3.15c0,0,0.01,0,0.01,0
			c2.67-0.82,5.46-1.35,8.35-1.6v-1.06v0C54.46,78.2,53.87,77.58,53.11,77.58 M94.9,91.88c-1.7-4.82-6.38-12.77-12.5-19.17
			c-6.15-6.48-15.1-13.89-21.33-13.66c-4.67,0.18-7.32,3.35-9.68,8c-0.22,0.59,0.05,1.1,1.01,1.1h15.57c0,0,1.16-0.02,1.78,0.59
			c2.26,2.23,3.74,4.38,4.88,6.92c0.5,1.11-0.06,1.92-1.59,1.92c-2.81,0-5.56,0-6.78,0c-0.75,0-1.31,0.66-1.31,1.4
			c0,0,0,0.01,0,0.01l0,1.5c12.45,2.17,22.82,10.02,28.14,20.68c0,0,0,0.01,0,0.01C96.92,98.28,96.24,95.68,94.9,91.88"/>
	</g>
	<g>
		<defs>
			<path id="SVGID_14_" d="M46.11,81.62c-1.19,5.24-1.8,10.47-1.72,13.94c0.14,5.69,0.81,9.54,3.36,12.75
				c2.43,3.04,9.99,3.42,17.3,2.42c11.75-1.55,18.11-4.27,23.92-7.17c1.74-0.84,3.07-1.63,4.09-2.4
				c-5.32-10.65-15.69-18.51-28.14-20.68L64.9,97.88c0,0,0.03,0.85-1.05,1.37c-2.12,1.02-5.39,1.94-8.44,2.27c0,0-0.94,0.18-0.94-1
				V80.02C51.57,80.27,48.78,80.81,46.11,81.62"/>
		</defs>
		<clipPath id="SVGID_15_">
			<use xlink:href="#SVGID_14_"  style="overflow:visible;"/>
		</clipPath>
		
			<radialGradient id="SVGID_16_" cx="-33.8533" cy="259.5566" r="0.687" gradientTransform="matrix(31.8814 0 0 -31.8814 1149.6366 8368.5361)" gradientUnits="userSpaceOnUse">
			<stop  offset="0" style="stop-color:#FFDE14"/>
			<stop  offset="9.340660e-04" style="stop-color:#FFDE14"/>
			<stop  offset="1" style="stop-color:#FFCD00"/>
		</radialGradient>
		<rect x="44.31" y="80.02" class="st8" width="48.75" height="31.7"/>
	</g>
	<g>
		<g>
			<g>
				<defs>
					<rect id="SVGID_17_" x="170.49" y="118.36" width="16.21" height="9.59"/>
				</defs>
				<clipPath id="SVGID_18_">
					<use xlink:href="#SVGID_17_"  style="overflow:visible;"/>
				</clipPath>
				<path class="st9" d="M178.26,124.27h0.33c0.18,0,0.3,0.03,0.37,0.08c0.07,0.05,0.11,0.17,0.11,0.36c0,0.19-0.04,0.32-0.13,0.39
					c-0.08,0.07-0.23,0.1-0.43,0.1h-0.26V124.27z M177.88,126.48h0.38v-0.96h0.29c0.07,0,0.13,0,0.16-0.01l0.39,0.97h0.42
					l-0.47-1.05c0.24-0.12,0.35-0.36,0.35-0.73c0-0.51-0.29-0.77-0.86-0.77h-0.69V126.48z M177.37,123.87
					c0.19-0.24,0.6-0.36,1.22-0.36c0.62,0,1.03,0.12,1.23,0.36s0.3,0.69,0.3,1.35c0,0.66-0.1,1.1-0.29,1.34
					c-0.2,0.24-0.61,0.35-1.23,0.35c-0.63,0-1.03-0.12-1.22-0.35c-0.19-0.24-0.28-0.68-0.28-1.34
					C177.08,124.56,177.17,124.11,177.37,123.87 M177.09,126.78c0.28,0.32,0.78,0.47,1.51,0.47c0.73,0,1.23-0.16,1.51-0.48
					c0.28-0.32,0.41-0.84,0.41-1.56c0-0.72-0.14-1.24-0.42-1.57c-0.28-0.32-0.78-0.49-1.5-0.49c-0.72,0-1.22,0.16-1.5,0.49
					c-0.28,0.33-0.42,0.85-0.42,1.57S176.81,126.47,177.09,126.78"/>
			</g>
		</g>
	</g>
</g>
</svg>
