<?xml version="1.0" encoding="UTF-8" standalone="no"?>
<!-- Created with Inkscape (http://www.inkscape.org/) -->

<svg
   width="210mm"
   height="297mm"
   viewBox="0 0 210 297"
   version="1.1"
   id="svg5"
   inkscape:version="1.1.2 (b8e25be833, 2022-02-05)"
   sodipodi:docname="InlayLegende.svg"
   xmlns:inkscape="http://www.inkscape.org/namespaces/inkscape"
   xmlns:sodipodi="http://sodipodi.sourceforge.net/DTD/sodipodi-0.dtd"
   xmlns="http://www.w3.org/2000/svg"
   xmlns:svg="http://www.w3.org/2000/svg">
  <sodipodi:namedview
     id="namedview7"
     pagecolor="#ffffff"
     bordercolor="#666666"
     borderopacity="1.0"
     inkscape:pageshadow="2"
     inkscape:pageopacity="0.0"
     inkscape:pagecheckerboard="0"
     inkscape:document-units="mm"
     showgrid="false"
     inkscape:zoom="2.8284271"
     inkscape:cx="289.38345"
     inkscape:cy="707.81389"
     inkscape:window-width="1920"
     inkscape:window-height="1017"
     inkscape:window-x="-8"
     inkscape:window-y="-8"
     inkscape:window-maximized="1"
     inkscape:current-layer="layer1" />
  <defs
     id="defs2" />
  <g
     inkscape:label="Ebene 1"
     inkscape:groupmode="layer"
     id="layer1">
    <path
       d="m 48.46078,265.64328 h 113.0782 a 0.73427384,0.73427384 0 0 0 0.7342,-0.73428 v -16.50647 a 0.73427384,0.73427384 0 0 0 -0.7342,-0.73427 h -4.1134 a 0.14538622,0.14538622 0 0 1 -0.1454,-0.14539 v -0.003 a 0.14538622,0.14538622 0 0 1 0.1454,-0.14538 h 12.6309 a 0.73427384,0.73427384 0 0 0 0.7343,-0.73428 v -61.85522 a 0.73427384,0.73427384 0 0 0 -0.7343,-0.73428 h -12.6309 a 0.14538622,0.14538622 0 0 1 -0.1454,-0.14538 v -0.003 a 0.14538622,0.14538622 0 0 1 0.1454,-0.14539 h 4.1134 a 0.73427384,0.73427384 0 0 0 0.7342,-0.73427 v -16.50648 a 0.73427384,0.73427384 0 0 0 -0.7342,-0.73427 H 48.46078 a 0.73427384,0.73427384 0 0 0 -0.7343,0.73427 v 16.50648 a 0.73427384,0.73427384 0 0 0 0.7343,0.73427 h 4.1134 a 0.14538622,0.14538622 0 0 1 0.1454,0.14539 v 0.003 a 0.14538622,0.14538622 0 0 1 -0.1454,0.14538 h -12.631 a 0.73427384,0.73427384 0 0 0 -0.7343,0.73428 v 61.85522 a 0.73427384,0.73427384 0 0 0 0.7343,0.73428 h 12.631 a 0.14538622,0.14538622 0 0 1 0.1454,0.14538 v 0.003 a 0.14538622,0.14538622 0 0 1 -0.1454,0.14539 h -4.1134 a 0.73427384,0.73427384 0 0 0 -0.7343,0.73427 V 264.909 a 0.73427384,0.73427384 0 0 0 0.7343,0.73428 z m 13.0715,-94.57447 v 0 a 0.73427384,0.73427384 0 0 0 -0.7342,0.73427 v 2.9371 a 0.73427384,0.73427384 0 0 0 0.7342,0.73427 h 38.329095 a 0.73427384,0.73427384 0 0 0 0.734305,-0.73427 v -2.9371 a 0.73427384,0.73427384 0 0 0 -0.734305,-0.73427 v 0 m 0,89.2877 v 0 a 0.73427384,0.73427384 0 0 0 0.734305,-0.73428 v -2.93709 a 0.73427384,0.73427384 0 0 0 -0.734305,-0.73427 H 61.53228 a 0.73427384,0.73427384 0 0 0 -0.7342,0.73427 v 2.93709 a 0.73427384,0.73427384 0 0 0 0.7342,0.73428 v 0 m 86.9351,-89.2877 v 0 a 0.73427384,0.73427384 0 0 1 0.7343,0.73427 v 2.9371 a 0.73427384,0.73427384 0 0 1 -0.7343,0.73427 h -38.3291 a 0.73427384,0.73427384 0 0 1 -0.7343,-0.73427 v -2.9371 a 0.73427384,0.73427384 0 0 1 0.7343,-0.73427 v 0 m 38.3262,89.2877 v 0 a 0.73427384,0.73427384 0 0 0 0.7343,-0.73428 v -2.93709 a 0.73427384,0.73427384 0 0 0 -0.7343,-0.73427 h -38.3291 a 0.73427384,0.73427384 0 0 0 -0.7343,0.73427 v 2.93709 a 0.73427384,0.73427384 0 0 0 0.7343,0.73428 v 0 m -57.4216,-27.66744 h 5.1399 a 0.73427384,0.73427384 0 0 0 0.7343,-0.73427 v -32.48428 a 0.73427384,0.73427384 0 0 0 -0.7343,-0.73427 h -5.1399 m 104.5606,33.95282 h -5.14 a 0.73427384,0.73427384 0 0 1 -0.7342,-0.73427 v -32.48428 a 0.73427384,0.73427384 0 0 1 0.7342,-0.73427 h 5.14 m -94.1552,-27.66744 h 1.4685 m -1.4685,89.2877 h 1.4685 m 47.1404,-89.2877 h 1.4685 m -1.4685,89.2877 h 1.4685 m -47.0164,-89.2877 h 1.4685 m -1.4685,89.2877 h 1.4685 m 47.1404,-89.2877 h 1.4686 m -1.4686,89.2877 h 1.4686 m -47.0163,-89.2877 h 1.4685 m -1.4685,89.2877 h 1.4685 m 47.1404,-89.2877 h 1.4686 m -1.4686,89.2877 h 1.4686 m -47.0165,-89.2877 h 1.4686 m -1.4686,89.2877 h 1.4686 m 47.1404,-89.2877 h 1.4685 m -1.4685,89.2877 h 1.4685 m -47.0163,-89.2877 h 1.4686 m -1.4686,89.2877 h 1.4686 m 47.1403,-89.2877 h 1.4686 m -1.4686,89.2877 h 1.4686 m -47.0163,-89.2877 h 1.4686 m -1.4686,89.2877 h 1.4686 m 47.1403,-89.2877 h 1.4686 m -1.4686,89.2877 h 1.4686 m -47.0165,-89.2877 h 1.4686 m -1.4686,89.2877 h 1.4686 m 47.1404,-89.2877 h 1.4685 m -1.4685,89.2877 h 1.4685 m -47.0163,-89.2877 h 1.4686 m -1.4686,89.2877 h 1.4686 m 47.1404,-89.2877 h 1.4685 m -1.4685,89.2877 h 1.4685 m -47.0163,-89.2877 h 1.4686 m -1.4686,89.2877 h 1.4686 m 47.1403,-89.2877 h 1.4686 m -1.4686,89.2877 h 1.4686 m -47.0164,-89.2877 h 1.468495 m -1.468495,89.2877 h 1.468495 m 47.140405,-89.2877 h 1.4685 m -1.4685,89.2877 h 1.4685 m -47.016305,-89.2877 h 1.4686 m -1.4686,89.2877 h 1.4686 m 47.140405,-89.2877 h 1.4685 m -1.4685,89.2877 h 1.4685 m -47.016405,-89.2877 h 1.4685 m -1.4685,89.2877 h 1.4685 m 47.140405,-89.2877 h 1.4686 m -1.4686,89.2877 h 1.4686 M 52.71378,245.906 v -0.73427 m 104.5606,0.73427 v -0.73427 M 52.71378,197.2677 v -0.73427 m 104.5606,0.73427 v -0.73427 m -104.5606,47.16975 v -0.73427 m 104.5606,0.73427 v -0.73427 M 52.71378,195.06488 v -0.73427 m 104.5606,0.73427 v -0.73427 m -104.5606,47.16975 v -0.73428 m 104.5606,0.73428 v -0.73428 M 52.71378,192.86206 v -0.73428 m 104.5606,0.73428 v -0.73428 m -104.5606,47.16975 v -0.73427 m 104.5606,0.73427 v -0.73427 M 52.71378,190.65924 v -0.73428 m 104.5606,0.73428 v -0.73428 m -104.5606,47.16975 v -0.73427 m 104.5606,0.73427 v -0.73427 M 52.71378,188.45642 v -0.73428 m 104.5606,0.73428 v -0.73428 m -104.5606,47.16975 v -0.73427 m 104.5606,0.73427 v -0.73427 M 52.71378,186.25359 v -0.73427 m 104.5606,0.73427 v -0.73427"
       id="path31"
       style="font-size:12px;fill:none;fill-rule:evenodd;stroke:#000000;stroke-width:0.0367137mm;stroke-linecap:round;stroke-width:0.1px" />
    <path
       d="M 32.840855,129.22995 H 177.15915 a 2.4882463,2.4882445 0 0 0 2.48824,-2.48824 v -12.93887 a 2.4882463,2.4882445 0 0 0 -2.48824,-2.48825 h -29.11746 a 0.49267277,0.49267242 0 0 1 -0.49267,-0.49267 v -0.01 a 0.49267277,0.49267242 0 0 1 0.49267,-0.49267 h 20.90624 a 2.4882463,2.4882445 0 0 0 2.48824,-2.48825 V 51.099025 a 2.4882463,2.4882445 0 0 0 -2.48824,-2.488245 h -20.90624 a 0.49267277,0.49267242 0 0 1 -0.49267,-0.492672 v -0.01 a 0.49267277,0.49267242 0 0 1 0.49267,-0.492673 h 29.11746 a 2.4882463,2.4882445 0 0 0 2.48824,-2.488244 V 32.188413 a 2.4882463,2.4882445 0 0 0 -2.48824,-2.488244 H 32.840855 a 2.4882463,2.4882445 0 0 0 -2.488246,2.488244 v 12.938872 a 2.4882463,2.4882445 0 0 0 2.488246,2.488244 h 29.117459 a 0.49267277,0.49267242 0 0 1 0.492672,0.492673 v 0.01 a 0.49267277,0.49267242 0 0 1 -0.492672,0.492672 H 41.052068 a 2.4882463,2.4882445 0 0 0 -2.488246,2.488245 V 107.8311 a 2.4882463,2.4882445 0 0 0 2.488246,2.48824 h 20.906246 a 0.49267277,0.49267242 0 0 1 0.492672,0.49267 v 0.01 a 0.49267277,0.49267242 0 0 1 -0.492672,0.49268 H 32.840855 a 2.4882463,2.4882445 0 0 0 -2.488246,2.48824 v 12.93887 a 2.4882463,2.4882445 0 0 0 2.488246,2.48825 z M 62.450986,96.385118 h 17.417725 a 2.4882463,2.4882445 0 0 0 2.488245,-2.48824 V 65.033241 A 2.4882463,2.4882445 0 0 0 79.868711,62.544997 H 62.450986 m 85.098034,33.840121 h -17.41773 a 2.4882463,2.4882445 0 0 1 -2.48825,-2.48824 V 65.033241 a 2.4882463,2.4882445 0 0 1 2.48825,-2.488244 h 17.41773 M 117.68508,46.620232 h 0.005 a 2.4882463,2.4882445 0 0 1 2.48825,2.488244 v 9.952978 a 2.4882463,2.4882445 0 0 1 -2.48825,2.488245 H 92.309941 a 2.4882463,2.4882445 0 0 1 -2.488245,-2.488245 v -9.952978 a 2.4882463,2.4882445 0 0 1 2.488245,-2.488244 h 0.005 m 25.370139,65.689658 h 0.005 a 2.4882463,2.4882445 0 0 0 2.48825,-2.48824 v -9.952982 a 2.4882463,2.4882445 0 0 0 -2.48825,-2.48825 H 92.309941 a 2.4882463,2.4882445 0 0 0 -2.488245,2.48825 v 9.952982 a 2.4882463,2.4882445 0 0 0 2.488245,2.48824 h 0.005 m 5.139224,-65.689658 h 4.976505 m -4.976505,65.689658 h 4.976505 m 5.13872,-65.689658 h 4.97649 m -4.97649,65.689658 h 4.97649 m -50.094894,-7.71356 v -2.48824 m 85.098034,2.48824 v -2.48824 M 62.450986,56.822034 V 54.33379 m 85.098034,2.488244 V 54.33379"
       id="path122"
       style="font-size:12px;fill:none;fill-rule:evenodd;stroke:#000000;stroke-width:0.124412mm;stroke-linecap:round;stroke-width:0.1px" />
    <path
       style="fill:#00ff00;stroke:#ff0000;stroke-width:0.100233px;stroke-linecap:butt;stroke-linejoin:miter;stroke-opacity:1"
       d="m 49.952674,47.606043 0,1.009956"
       id="path1886-1-90-7-0"
       sodipodi:nodetypes="cc" />
    <path
       style="fill:#ff6600;stroke:#d4aa00;stroke-width:0.1px;stroke-linecap:butt;stroke-linejoin:miter;stroke-opacity:1"
       d="m 30.35,21.226465 v10"
       id="path1886" />
    <path
       style="fill:#0000ff;stroke:#0000ff;stroke-width:0.1px;stroke-linecap:butt;stroke-linejoin:miter;stroke-opacity:1"
       d="m 39.101532,29.71664 0,17.892804"
       id="path1886-42"
       sodipodi:nodetypes="cc" />
    <path
       style="fill:#0000ff;stroke:#0000ff;stroke-width:0.1px;stroke-linecap:butt;stroke-linejoin:miter;stroke-opacity:1"
       d="m 98.358892,46.616098 0,14.949314"
       id="path1886-42-03"
       sodipodi:nodetypes="cc" />
    <path
       style="fill:#ff6600;stroke:#ff6600;stroke-width:0.1px;stroke-linecap:butt;stroke-linejoin:miter;stroke-opacity:1"
       d="m 64.690625,62.567969 0,33.779427"
       id="path1886-7"
       sodipodi:nodetypes="cc" />
    <path
       style="fill:#ff6600;stroke:#aa8800;stroke-width:0.1px;stroke-linecap:butt;stroke-linejoin:miter;stroke-opacity:1"
       d="m 82.351562,60.500911 v 3.153906"
       id="path1886-7-8"
       sodipodi:nodetypes="cc" />
    <path
       style="fill:#aa8800;stroke:#aa8800;stroke-width:0.1px;stroke-linecap:butt;stroke-linejoin:miter;stroke-opacity:1"
       d="m 62.450986,60.373307 0,2.17169"
       id="path1886-7-8-1"
       sodipodi:nodetypes="cc" />
    <path
       style="fill:#ff6600;stroke:#d4aa00;stroke-width:0.1px;stroke-linecap:butt;stroke-linejoin:miter;stroke-opacity:1"
       d="m 62.440843,61.027592 19.898341,0"
       id="path1886-7-8-1-8"
       sodipodi:nodetypes="cc" />
    <path
       style="fill:#ff6600;stroke:#ff0000;stroke-width:0.1px;stroke-linecap:butt;stroke-linejoin:miter;stroke-opacity:1"
       d="m 82.332315,54.489575 7.55049,0"
       id="path1886-7-8-1-8-00"
       sodipodi:nodetypes="cc" />
    <path
       style="fill:#ff6600;stroke:#ff0000;stroke-width:0.1px;stroke-linecap:butt;stroke-linejoin:miter;stroke-opacity:1"
       d="m 82.351562,52.70326 0,7.797651"
       id="path1886-7-8-1-8-00-4"
       sodipodi:nodetypes="cc" />
    <path
       style="fill:#ff6600;stroke:#d4aa00;stroke-width:0.100233px;stroke-linecap:butt;stroke-linejoin:miter;stroke-opacity:1"
       d="M 30.3,25.559376 H 179.63619"
       id="path1886-1" />
    <path
       style="fill:#00ff00;stroke:#00ff00;stroke-width:0.100233px;stroke-linecap:butt;stroke-linejoin:miter;stroke-opacity:1"
       d="m 30.372618,55.392124 32.078368,0"
       id="path1886-1-90"
       sodipodi:nodetypes="cc" />
    <path
       style="fill:#ff00ff;stroke:#ff00ff;stroke-width:0.100233px;stroke-linecap:butt;stroke-linejoin:miter;stroke-opacity:1"
       d="m 30.362117,57.844532 59.486859,0"
       id="path1886-1-90-1"
       sodipodi:nodetypes="cc" />
    <path
       style="fill:#ff00ff;stroke:#ff00ff;stroke-width:0.100233px;stroke-linecap:butt;stroke-linejoin:miter;stroke-opacity:1"
       d="m 30.382192,58.357186 0,-1.72343"
       id="path1886-1-90-1-5"
       sodipodi:nodetypes="cc" />
    <path
       style="fill:#00ff00;stroke:#00ff00;stroke-width:0.100233px;stroke-linecap:butt;stroke-linejoin:miter;stroke-opacity:1"
       d="m 30.382192,46.210901 0,10.422855"
       id="path1886-1-90-7"
       sodipodi:nodetypes="cc" />
    <path
       style="fill:#00ff00;stroke:#00ff00;stroke-width:0.100233px;stroke-linecap:butt;stroke-linejoin:miter;stroke-opacity:1"
       d="m 179.00117,29.765625 h 15.19244"
       id="path1886-1-3"
       sodipodi:nodetypes="cc" />
    <path
       style="fill:#008000;stroke:#008000;stroke-width:0.100233px;stroke-linecap:butt;stroke-linejoin:miter;stroke-opacity:1"
       d="m 147.54902,54.33379 23.89206,0"
       id="path1886-1-3-1"
       sodipodi:nodetypes="cc" />
    <path
       style="fill:#00ff00;stroke:#00ff00;stroke-width:0.100233px;stroke-linecap:butt;stroke-linejoin:miter;stroke-opacity:1"
       d="m 178.83582,129.24896 h 15.19244"
       id="path1886-1-3-4"
       sodipodi:nodetypes="cc" />
    <path
       style="fill:#00ff00;stroke:#00ff00;stroke-width:0.100233px;stroke-linecap:butt;stroke-linejoin:miter;stroke-opacity:1"
       d="m 189.81602,29.765616 0,99.495304"
       id="path1886-1-3-4-0"
       sodipodi:nodetypes="cc" />
    <path
       style="fill:#ff00ff;stroke:#ff00ff;stroke-width:0.100233px;stroke-linecap:butt;stroke-linejoin:miter;stroke-opacity:1"
       d="m 147.56001,135.85595 0,-30.67469 v 30"
       id="path1886-1-3-4-0-6"
       sodipodi:nodetypes="cc" />
    <path
       style="fill:#ff00ff;stroke:#ff00ff;stroke-width:0.100233px;stroke-linecap:butt;stroke-linejoin:miter;stroke-opacity:1"
       d="m 62.450986,136.32936 v -30.67469 30"
       id="path1886-1-3-4-0-6-2"
       sodipodi:nodetypes="cc" />
    <path
       style="fill:#ff00ff;stroke:#00ff00;stroke-width:0.100233px;stroke-linecap:butt;stroke-linejoin:miter;stroke-opacity:1"
       d="m 94.955776,129.20103 0,-31.820612 v 30.000002"
       id="path1886-1-3-4-0-6-2-5"
       sodipodi:nodetypes="ccc" />
    <path
       style="fill:#ff00ff;stroke:#ff00ff;stroke-width:0.100233px;stroke-linecap:butt;stroke-linejoin:miter;stroke-opacity:1"
       d="M 62.450986,134.06716 H 147.4839"
       id="path1886-1-3-4-0-6-2-1"
       sodipodi:nodetypes="cc" />
    <path
       style="fill:#aa0000;stroke:#aa0000;stroke-width:0.100233px;stroke-linecap:butt;stroke-linejoin:miter;stroke-opacity:1"
       d="M 30.3159,21.226 H 179.65209"
       id="path1886-1-4" />
    <path
       style="fill:#ff6600;stroke:#d4aa00;stroke-width:0.1px;stroke-linecap:butt;stroke-linejoin:miter;stroke-opacity:1"
       d="m 179.65209,21.226 v 10"
       id="path1886-9" />
    <path
       style="fill:#ff0000;stroke:#ff0000;stroke-width:0.1px;stroke-linecap:butt;stroke-linejoin:miter;stroke-opacity:1"
       d="M 112.54588,46.620232 V 112.30989"
       id="path1886-9-8"
       sodipodi:nodetypes="cc" />
    <text
       xml:space="preserve"
       style="font-style:normal;font-weight:normal;font-size:3.52778px;line-height:0.75;font-family:sans-serif;white-space:pre;inline-size:72.2681;fill:#d4aa00;fill-opacity:1;stroke:none;stroke-width:0.264583"
       x="83.872917"
       y="21.960417"
       id="text3380"
       transform="translate(-8.9958333,2.9104167)"><tspan
         x="83.872917"
         y="21.960417"
         id="tspan5452">Kartonbreite -&gt; metadata.boxWidth</tspan></text>
    <path
       style="fill:#ff6600;stroke:#d4aa00;stroke-width:0.1px;stroke-linecap:butt;stroke-linejoin:miter;stroke-opacity:1"
       d="m 47.735279,159.83564 0,6.14701"
       id="path1886-4"
       sodipodi:nodetypes="cc" />
    <path
       style="fill:#ff6600;stroke:#d4aa00;stroke-width:0.0877899px;stroke-linecap:butt;stroke-linejoin:miter;stroke-opacity:1"
       d="M 47.685279,160.31556 H 162.2453"
       id="path1886-1-9" />
    <path
       style="fill:#ff6600;stroke:#d4aa00;stroke-width:0.1px;stroke-linecap:butt;stroke-linejoin:miter;stroke-opacity:1"
       d="m 162.25,159.30601 0,6.67617"
       id="path1886-9-5"
       sodipodi:nodetypes="cc" />
    <text
       xml:space="preserve"
       style="font-style:normal;font-weight:normal;font-size:3.52778px;line-height:0.75;font-family:sans-serif;white-space:pre;inline-size:72.2681;fill:#d4aa00;fill-opacity:1;stroke:none;stroke-width:0.264583"
       x="83.872917"
       y="21.960417"
       id="text3380-0"
       transform="translate(-12.071765,136.78011)"><tspan
         x="83.872917"
         y="21.960417"
         id="tspan5454">Kartonbreite -&gt; metadata.boxWidth</tspan></text>
    <text
       x="69.585411"
       y="19.84375"
       id="text24173"
       xml:space="preserve"
       style="font-size:3.52778px;line-height:1.25;font-family:sans-serif;fill:#aa0000;stroke-width:0.264583"><tspan
         sodipodi:role="line"
         id="tspan24171"
         style="font-size:3.52778px;fill:#aa0000;stroke-width:0.264583"
         x="69.585411"
         y="19.84375">Gesamtbreite -&gt;  determineTotalWidth()</tspan></text>
    <path
       style="fill:#aa0000;stroke:#aa0000;stroke-width:0.100233px;stroke-linecap:butt;stroke-linejoin:miter;stroke-opacity:1"
       d="m 39.201956,153.34788 131.588434,0"
       id="path1886-1-4-4"
       sodipodi:nodetypes="cc" />
    <path
       style="fill:#aa0000;stroke:#aa0000;stroke-width:0.100233px;stroke-linecap:butt;stroke-linejoin:miter;stroke-opacity:1"
       d="m 39.218492,152.46187 v 31.80987"
       id="path1886-1-4-4-2"
       sodipodi:nodetypes="cc" />
    <text
       x="71.228493"
       y="151.96562"
       id="text24173-1"
       xml:space="preserve"
       style="font-size:3.52778px;line-height:1.25;font-family:sans-serif;fill:#aa0000;stroke-width:0.264583"><tspan
         sodipodi:role="line"
         id="tspan24171-6"
         style="font-size:3.52778px;fill:#aa0000;stroke-width:0.264583"
         x="71.228493"
         y="151.96562">Gesamtbreite -&gt;  determineTotalWidth()</tspan></text>
    <path
       style="fill:#aa0000;stroke:#aa0000;stroke-width:0.100233px;stroke-linecap:butt;stroke-linejoin:miter;stroke-opacity:1"
       d="m 170.78854,152.56753 0,31.69294"
       id="path1886-1-4-4-2-9"
       sodipodi:nodetypes="cc" />
    <text
       xml:space="preserve"
       style="font-size:3.52777px;line-height:1.25;font-family:sans-serif;fill:#00ff00;stroke-width:0.264583"
       x="47.050083"
       y="-191.56038"
       id="text37102"
       transform="rotate(90)"><tspan
         sodipodi:role="line"
         id="tspan37100"
         style="fill:#00ff00;stroke-width:0.264583"
         x="47.050083"
         y="-191.56038">Kartonhöhe -&gt; determineTotalHeight()</tspan></text>
    <path
       style="fill:#00ff00;stroke:#00ff00;stroke-width:0.100233px;stroke-linecap:butt;stroke-linejoin:miter;stroke-opacity:1"
       d="m 162.25,165.98218 h 19.69036"
       id="path1886-1-3-8"
       sodipodi:nodetypes="cc" />
    <path
       style="fill:#00ff00;stroke:#00ff00;stroke-width:0.100233px;stroke-linecap:butt;stroke-linejoin:miter;stroke-opacity:1"
       d="m 162.08465,265.46551 20.21952,0"
       id="path1886-1-3-4-5"
       sodipodi:nodetypes="cc" />
    <path
       style="fill:#00ff00;stroke:#00ff00;stroke-width:0.100233px;stroke-linecap:butt;stroke-linejoin:miter;stroke-opacity:1"
       d="m 177.29821,165.98217 v 99.4953"
       id="path1886-1-3-4-0-3"
       sodipodi:nodetypes="cc" />
    <text
       xml:space="preserve"
       style="font-size:3.52777px;line-height:1.25;font-family:sans-serif;fill:#00ff00;stroke-width:0.264583"
       x="183.26663"
       y="-178.51334"
       id="text37102-1"
       transform="rotate(90)"><tspan
         sodipodi:role="line"
         id="tspan37100-4"
         style="fill:#00ff00;stroke-width:0.264583"
         x="183.26663"
         y="-178.51334">Kartonhöhe -&gt; determineTotalHeight()</tspan></text>
    <text
       xml:space="preserve"
       style="font-size:2.82222px;line-height:1.25;font-family:sans-serif;fill:#ff00ff;stroke-width:0.264583"
       x="61.271538"
       y="139.66168"
       id="text50630"><tspan
         sodipodi:role="line"
         id="tspan50628"
         style="font-size:2.82222px;fill:#ff00ff;stroke-width:0.264583"
         x="61.271538"
         y="139.66168">Vitrinenbreite + 12 -&gt; kartonbreiteMinusLappenLinksRechts()</tspan></text>
    <path
       style="fill:#ff00ff;stroke:#ff00ff;stroke-width:0.100233px;stroke-linecap:butt;stroke-linejoin:miter;stroke-opacity:1"
       d="m 157.27438,279.22654 v -30.67469 30"
       id="path1886-1-3-4-0-6-9"
       sodipodi:nodetypes="cc" />
    <path
       style="fill:#ff00ff;stroke:#ff00ff;stroke-width:0.100233px;stroke-linecap:butt;stroke-linejoin:miter;stroke-opacity:1"
       d="m 52.750117,278.93769 v -30.67469 30"
       id="path1886-1-3-4-0-6-2-6"
       sodipodi:nodetypes="cc" />
    <path
       style="fill:#ff00ff;stroke:#ff00ff;stroke-width:0.100233px;stroke-linecap:butt;stroke-linejoin:miter;stroke-opacity:1"
       d="m 52.708128,277.43775 104.490142,0"
       id="path1886-1-3-4-0-6-2-1-2"
       sodipodi:nodetypes="cc" />
    <text
       xml:space="preserve"
       style="font-size:2.82222px;line-height:1.25;font-family:sans-serif;fill:#ff00ff;stroke-width:0.264583"
       x="61.990067"
       y="280.38641"
       id="text50630-2"><tspan
         sodipodi:role="line"
         id="tspan50628-8"
         style="font-size:2.82222px;fill:#ff00ff;stroke-width:0.264583"
         x="61.990067"
         y="280.38641">Vitrinenbreite + 12 -&gt; kartonbreiteMinusLappenLinksRechts()</tspan></text>
    <text
       xml:space="preserve"
       style="font-size:2.82222px;line-height:1.25;font-family:sans-serif;fill:#ff0000;stroke-width:0.264583"
       x="-93.722145"
       y="111.48239"
       id="text61388"
       transform="rotate(-90)"><tspan
         sodipodi:role="line"
         id="tspan61386"
         style="font-size:2.82222px;fill:#ff0000;stroke-width:0.264583"
         x="-93.722145"
         y="111.48239">Vitrinenhöhe + 8mm</tspan></text>
    <path
       style="fill:#ff0000;stroke:#ff0000;stroke-width:0.1px;stroke-linecap:butt;stroke-linejoin:miter;stroke-opacity:1"
       d="m 117.85028,171.21061 v 89.1459"
       id="path1886-9-8-7"
       sodipodi:nodetypes="cc" />
    <text
       xml:space="preserve"
       style="font-size:2.82222px;line-height:1.25;font-family:sans-serif;fill:#ff0000;stroke-width:0.264583"
       x="-227.72525"
       y="116.69743"
       id="text61388-0"
       transform="rotate(-90)"><tspan
         sodipodi:role="line"
         id="tspan61386-6"
         style="font-size:2.82222px;fill:#ff0000;stroke-width:0.264583"
         x="-227.72525"
         y="116.69743">Vitrinenhöhe + 8mm</tspan></text>
    <text
       xml:space="preserve"
       style="font-size:1.41111px;line-height:1.25;font-family:sans-serif;fill:#008000;stroke-width:0.264583"
       x="144.05502"
       y="51.793812"
       id="text67451"><tspan
         sodipodi:role="line"
         id="tspan67449"
         style="font-size:1.41111px;fill:#008000;stroke-width:0.264583"
         x="144.05502"
         y="51.793812">(Kartonlänge - Vitrinenlänge - 16) / 2</tspan><tspan
         sodipodi:role="line"
         style="font-size:1.41111px;fill:#008000;stroke-width:0.264583"
         x="144.05502"
         y="53.557701"
         id="tspan104496">-&gt;breiteMittlererLappenLinksRechts()</tspan></text>
    <path
       style="fill:#008000;stroke:#008000;stroke-width:0.100233px;stroke-linecap:butt;stroke-linejoin:miter;stroke-opacity:1"
       d="m 157.28601,192.76201 13.44102,0"
       id="path1886-1-3-1-4"
       sodipodi:nodetypes="cc" />
    <text
       xml:space="preserve"
       style="font-size:1.41111px;line-height:1.25;font-family:sans-serif;fill:#008000;stroke-width:0.264583"
       x="146.7551"
       y="189.92534"
       id="text67451-3"><tspan
         sodipodi:role="line"
         id="tspan67449-9"
         style="font-size:1.41111px;fill:#008000;stroke-width:0.264583"
         x="146.7551"
         y="189.92534">(Kartonlänge - Vitrinenlänge - 16) / 2</tspan><tspan
         sodipodi:role="line"
         style="font-size:1.41111px;fill:#008000;stroke-width:0.264583"
         x="146.7551"
         y="191.68922"
         id="tspan107834">-&gt; breiteMittlererLappenLinksRechts()</tspan></text>
    <text
       xml:space="preserve"
       style="font-size:1.76389px;line-height:1.25;font-family:sans-serif;fill:#ff6600;stroke-width:0.264583"
       x="63.150433"
       y="-68.111336"
       id="text83047"
       transform="rotate(90)"><tspan
         sodipodi:role="line"
         id="tspan83045"
         style="font-size:1.76389px;fill:#ff6600;stroke-width:0.264583"
         x="63.150433"
         y="-68.111336">34% der Kartonhöhe</tspan><tspan
         sodipodi:role="line"
         style="font-size:1.76389px;fill:#ff6600;stroke-width:0.264583"
         x="63.150433"
         y="-65.906471"
         id="tspan83049">-&gt; innenLinksRechtsLaschenHoehe()</tspan></text>
    <path
       style="fill:#ff6600;stroke:#ff6600;stroke-width:0.1px;stroke-linecap:butt;stroke-linejoin:miter;stroke-opacity:1"
       d="m 53.242947,198.73625 v 33.77943"
       id="path1886-7-3"
       sodipodi:nodetypes="cc" />
    <text
       xml:space="preserve"
       style="font-size:1.76389px;line-height:1.25;font-family:sans-serif;fill:#ff6600;stroke-width:0.264583"
       x="199.31871"
       y="-56.663662"
       id="text83047-0"
       transform="rotate(90)"><tspan
         sodipodi:role="line"
         id="tspan83045-6"
         style="font-size:1.76389px;fill:#ff6600;stroke-width:0.264583"
         x="199.31871"
         y="-56.663662">34% der Kartonhöhe</tspan><tspan
         sodipodi:role="line"
         style="font-size:1.76389px;fill:#ff6600;stroke-width:0.264583"
         x="199.31871"
         y="-54.458801"
         id="tspan83049-0">-&gt; innenLinksRechtsLaschenHoehe()</tspan></text>
    <text
       xml:space="preserve"
       style="font-size:2.11667px;line-height:1.25;font-family:sans-serif;fill:#0000ff;stroke-width:0.264583"
       x="31.243805"
       y="36.950012"
       id="text94497"><tspan
         sodipodi:role="line"
         id="tspan94495"
         style="font-size:2.11667px;fill:#0000ff;stroke-width:0.264583"
         x="31.243805"
         y="36.950012">18% der Kartonhöhe</tspan><tspan
         sodipodi:role="line"
         style="font-size:2.11667px;fill:#0000ff;stroke-width:0.264583"
         x="31.243805"
         y="39.595844"
         id="tspan96017">-&gt;obenUntenFetteLasche()</tspan></text>
    <path
       style="fill:#0000ff;stroke:#0000ff;stroke-width:0.1px;stroke-linecap:butt;stroke-linejoin:miter;stroke-opacity:1"
       d="m 51.832604,165.79442 v 17.8928"
       id="path1886-42-0"
       sodipodi:nodetypes="cc" />
    <text
       xml:space="preserve"
       style="font-size:1.41111px;line-height:1.25;font-family:sans-serif;fill:#0000ff;stroke-width:0.264583"
       x="166.46004"
       y="-50.2859"
       id="text94497-8"
       transform="rotate(90)"><tspan
         sodipodi:role="line"
         id="tspan94495-8"
         style="font-size:1.41111px;fill:#0000ff;stroke-width:0.264583"
         x="166.46004"
         y="-50.2859">18% der Kartonhöhe</tspan><tspan
         sodipodi:role="line"
         style="font-size:1.41111px;fill:#0000ff;stroke-width:0.264583"
         x="166.46004"
         y="-48.522011"
         id="tspan96017-2">-&gt;obenUntenFetteLasche()</tspan></text>
    <text
       xml:space="preserve"
       style="font-size:1.41111px;line-height:1.25;font-family:sans-serif;fill:#00ff00;stroke-width:0.264583"
       x="31.150263"
       y="49.204319"
       id="text112057"><tspan
         sodipodi:role="line"
         id="tspan112055"
         style="font-size:1.41111px;fill:#00ff00;stroke-width:0.264583"
         x="31.150263"
         y="49.204319">Eini</tspan><tspan
         sodipodi:role="line"
         style="font-size:1.41111px;fill:#00ff00;stroke-width:0.264583"
         x="31.150263"
         y="50.968208"
         id="tspan120833">determineEini()</tspan><tspan
         sodipodi:role="line"
         style="font-size:1.41111px;fill:#00ff00;stroke-width:0.264583"
         x="31.150263"
         y="52.732094"
         id="tspan120835">(metadata.boxWidth - </tspan><tspan
         sodipodi:role="line"
         style="font-size:1.41111px;fill:#00ff00;stroke-width:0.264583"
         x="31.150263"
         y="54.495983"
         id="tspan127345">      kartonbreiteMinusLappenLinksRechts()) / 2</tspan></text>
    <path
       style="fill:#00ff00;stroke:#00ff00;stroke-width:0.100233px;stroke-linecap:butt;stroke-linejoin:miter;stroke-opacity:1"
       d="m 39.15719,195.06488 13.55659,0"
       id="path1886-1-90-71"
       sodipodi:nodetypes="cc" />
    <text
       xml:space="preserve"
       style="font-size:1.41111px;line-height:1.25;font-family:sans-serif;fill:#00ff00;stroke-width:0.264583"
       x="39.736389"
       y="190.67039"
       id="text112057-9"><tspan
         sodipodi:role="line"
         id="tspan112055-2"
         style="font-size:1.41111px;fill:#00ff00;stroke-width:0.264583"
         x="39.736389"
         y="190.67039">Eini</tspan><tspan
         sodipodi:role="line"
         style="font-size:1.41111px;fill:#00ff00;stroke-width:0.264583"
         x="39.736389"
         y="192.43428"
         id="tspan120833-5">determineEini()</tspan><tspan
         sodipodi:role="line"
         style="font-size:1.41111px;fill:#00ff00;stroke-width:0.264583"
         x="39.736389"
         y="194.19817"
         id="tspan127345-3">breiteMittlererLappenLinksRechts()</tspan></text>
    <text
       xml:space="preserve"
       style="font-size:1.41111px;line-height:1.25;font-family:sans-serif;fill:#00ff00;stroke-width:0.264583"
       x="79.512688"
       y="117.3046"
       id="text131665"><tspan
         sodipodi:role="line"
         id="tspan131663"
         style="font-size:1.41111px;fill:#00ff00;stroke-width:0.264583"
         x="79.512688"
         y="117.3046">Oba determineOba()</tspan><tspan
         sodipodi:role="line"
         style="font-size:1.41111px;fill:#00ff00;stroke-width:0.264583"
         x="79.512688"
         y="119.06849"
         id="tspan132129">((determineTotalHeight() - </tspan><tspan
         sodipodi:role="line"
         style="font-size:1.41111px;fill:#00ff00;stroke-width:0.264583"
         x="79.512688"
         y="120.83238"
         id="tspan138769">       (metadata.cabinetHeight + 8 )) / 2) </tspan><tspan
         sodipodi:role="line"
         style="font-size:1.41111px;fill:#00ff00;stroke-width:0.264583"
         x="79.512688"
         y="122.59627"
         id="tspan157735">+ determineObenUntenLaschenHeight()</tspan></text>
    <path
       style="fill:#ff00ff;stroke:#00ff00;stroke-width:0.100233px;stroke-linecap:butt;stroke-linejoin:miter;stroke-opacity:1"
       d="m 79.165226,265.65743 0,-9.67829"
       id="path1886-1-3-4-0-6-2-5-0"
       sodipodi:nodetypes="cc" />
    <text
       xml:space="preserve"
       style="font-size:1.41111px;line-height:1.25;font-family:sans-serif;fill:#00ff00;stroke-width:0.264583"
       x="59.842884"
       y="259.76407"
       id="text131665-6"><tspan
         sodipodi:role="line"
         id="tspan131663-0"
         style="font-size:1.41111px;fill:#00ff00;stroke-width:0.264583"
         x="59.842884"
         y="259.76407">Oba determineOba()</tspan><tspan
         sodipodi:role="line"
         style="font-size:1.41111px;fill:#00ff00;stroke-width:0.264583"
         x="59.842884"
         y="261.52795"
         id="tspan132129-3">((determineTotalHeight() - </tspan><tspan
         sodipodi:role="line"
         style="font-size:1.41111px;fill:#00ff00;stroke-width:0.264583"
         x="59.842884"
         y="263.29184"
         id="tspan138769-8">       (metadata.cabinetHeight + 8 )) / 2) </tspan><tspan
         sodipodi:role="line"
         style="font-size:1.41111px;fill:#00ff00;stroke-width:0.264583"
         x="59.842884"
         y="265.05573"
         id="tspan154547">+ determineObenUntenLaschenHeight()</tspan></text>
    <text
       xml:space="preserve"
       style="font-size:1.41111px;line-height:1.25;font-family:sans-serif;fill:#0000ff;stroke-width:0.264583"
       x="-68.903885"
       y="100.09656"
       id="text141873"
       transform="rotate(-90)"><tspan
         sodipodi:role="line"
         style="font-size:1.41111px;fill:#0000ff;stroke-width:0.264583"
         x="-68.903885"
         y="100.09656"
         id="tspan145053">10% der Schachtelbreite</tspan><tspan
         sodipodi:role="line"
         style="font-size:1.41111px;fill:#0000ff;stroke-width:0.264583"
         x="-68.903885"
         y="101.86044"
         id="tspan3116">determineObenUntenLaschenHeight()</tspan><tspan
         sodipodi:role="line"
         style="font-size:1.41111px;fill:#0000ff;stroke-width:0.264583"
         x="-68.903885"
         y="103.62434"
         id="tspan3118">begrenzt auf maximal 60 mm oder bei kleinen </tspan><tspan
         sodipodi:role="line"
         style="font-size:1.41111px;fill:#0000ff;stroke-width:0.264583"
         x="-68.903885"
         y="105.38822"
         id="tspan3120">(determineTotalHeight() </tspan><tspan
         sodipodi:role="line"
         style="font-size:1.41111px;fill:#0000ff;stroke-width:0.264583"
         x="-68.903885"
         y="107.15211"
         id="tspan3122">                - (obenUntenFetteLasche() * 2)) / 4</tspan></text>
    <path
       style="fill:#0000ff;stroke:#0000ff;stroke-width:0.1px;stroke-linecap:butt;stroke-linejoin:miter;stroke-opacity:1"
       d="m 79.89338,171.06881 0,4.39905"
       id="path1886-42-03-1"
       sodipodi:nodetypes="cc" />
    <text
       xml:space="preserve"
       style="font-size:1.41111px;line-height:1.25;font-family:sans-serif;fill:#0000ff;stroke-width:0.264583"
       x="-193.42274"
       y="79.580521"
       id="text141873-2"
       transform="rotate(-90)"><tspan
         sodipodi:role="line"
         id="tspan141871-1"
         style="font-size:1.41111px;fill:#0000ff;stroke-width:0.264583"
         x="-193.42274"
         y="79.580521">10% der Schachtelbreite</tspan><tspan
         sodipodi:role="line"
         style="font-size:1.41111px;fill:#0000ff;stroke-width:0.264583"
         x="-193.42274"
         y="81.344406"
         id="tspan145053-4">determineObenUntenLaschenHeight()</tspan><tspan
         sodipodi:role="line"
         style="font-size:1.41111px;fill:#0000ff;stroke-width:0.264583"
         x="-193.42274"
         y="83.108299"
         id="tspan3376">begrenzt auf maximal 60 mm oder bei kleinen </tspan><tspan
         sodipodi:role="line"
         style="font-size:1.41111px;fill:#0000ff;stroke-width:0.264583"
         x="-193.42274"
         y="84.872185"
         id="tspan5292">(determineTotalHeight() </tspan><tspan
         sodipodi:role="line"
         style="font-size:1.41111px;fill:#0000ff;stroke-width:0.264583"
         x="-193.42274"
         y="86.63607"
         id="tspan5294">                - (obenUntenFetteLasche() * 2)) / 4</tspan></text>
    <path
       style="fill:#ff6600;stroke:#aa8800;stroke-width:0.1px;stroke-linecap:butt;stroke-linejoin:miter;stroke-opacity:1"
       d="m 58.592849,196.62409 0,2.46402"
       id="path1886-7-8-9"
       sodipodi:nodetypes="cc" />
    <path
       style="fill:#aa8800;stroke:#aa8800;stroke-width:0.1px;stroke-linecap:butt;stroke-linejoin:miter;stroke-opacity:1"
       d="m 52.723923,196.61342 v 2.17169"
       id="path1886-7-8-1-1"
       sodipodi:nodetypes="cc" />
    <path
       style="fill:#ff6600;stroke:#d4aa00;stroke-width:0.1px;stroke-linecap:butt;stroke-linejoin:miter;stroke-opacity:1"
       d="m 52.71378,197.2677 5.878384,0"
       id="path1886-7-8-1-8-0"
       sodipodi:nodetypes="cc" />
    <text
       xml:space="preserve"
       style="font-size:1.41111px;line-height:1.25;font-family:sans-serif;fill:#d4aa00;stroke-width:0.264583"
       x="53.0061"
       y="196.83347"
       id="text160056-4"><tspan
         sodipodi:role="line"
         id="tspan160054-7"
         style="font-size:1.41111px;fill:#d4aa00;stroke-width:0.264583"
         x="53.0061"
         y="196.83347">10 % der Schachtellänge</tspan><tspan
         sodipodi:role="line"
         style="font-size:1.41111px;fill:#d4aa00;stroke-width:0.264583"
         x="53.0061"
         y="198.59735"
         id="tspan3857">max 60 mm</tspan></text>
    <text
       xml:space="preserve"
       style="font-size:1.41111px;line-height:1.25;font-family:sans-serif;fill:#d4aa00;stroke-width:0.264583"
       x="63.430569"
       y="60.694328"
       id="text160056-4-4"><tspan
         sodipodi:role="line"
         id="tspan160054-7-5"
         style="font-size:1.41111px;fill:#d4aa00;stroke-width:0.264583"
         x="63.430569"
         y="60.694328">10 % der Schachtellänge</tspan><tspan
         sodipodi:role="line"
         style="font-size:1.41111px;fill:#d4aa00;stroke-width:0.264583"
         x="63.430569"
         y="62.458218"
         id="tspan1977">max 60 mm</tspan></text>
    <text
       xml:space="preserve"
       style="font-size:1.76388889px;line-height:1.25;font-family:sans-serif;stroke-width:0.264583;fill:#ff0000"
       x="48.643055"
       y="47.087879"
       id="text169135"><tspan
         sodipodi:role="line"
         id="tspan169133"
         style="stroke-width:0.264583;fill:#ff0000;font-size:1.76388889px"
         x="48.643055"
         y="47.087879">2 mm</tspan></text>
    <path
       style="fill:#00ff00;stroke:#ff0000;stroke-width:0.100233px;stroke-linecap:butt;stroke-linejoin:miter;stroke-opacity:1"
       d="m 49.761613,247.34761 0,0.3485"
       id="path1886-1-90-7-0-7"
       sodipodi:nodetypes="cc" />
    <text
       xml:space="preserve"
       style="font-size:1.76389px;line-height:1.25;font-family:sans-serif;fill:#ff0000;stroke-width:0.264583"
       x="100.46335"
       y="229.25856"
       id="text169135-7"
       transform="rotate(13.257124)"><tspan
         sodipodi:role="line"
         id="tspan169133-5"
         style="font-size:1.76389px;fill:#ff0000;stroke-width:0.264583"
         x="100.46335"
         y="229.25856">2 mm</tspan></text>
    <text
       xml:space="preserve"
       style="font-size:1.76389px;line-height:1.25;font-family:sans-serif;fill:#ff0000;stroke-width:0.264583"
       x="83.441551"
       y="53.975079"
       id="text173377"><tspan
         sodipodi:role="line"
         id="tspan173375"
         style="font-size:1.76389px;fill:#ff0000;stroke-width:0.264583"
         x="83.441551"
         y="53.975079">15mm</tspan></text>
    <path
       style="fill:#ff6600;stroke:#ff0000;stroke-width:0.1px;stroke-linecap:butt;stroke-linejoin:miter;stroke-opacity:1"
       d="m 58.552351,173.00995 2.253542,0"
       id="path1886-7-8-1-8-00-3"
       sodipodi:nodetypes="cc" />
    <path
       style="fill:#ff6600;stroke:#ff0000;stroke-width:0.1px;stroke-linecap:butt;stroke-linejoin:miter;stroke-opacity:1"
       d="m 58.592849,171.98846 0,24.63563"
       id="path1886-7-8-1-8-00-4-7"
       sodipodi:nodetypes="cc" />
    <text
       xml:space="preserve"
       style="font-size:1.76389px;line-height:1.25;font-family:sans-serif;fill:#ff0000;stroke-width:0.264583"
       x="-175.21605"
       y="60.283508"
       id="text173377-0"
       transform="rotate(-90)"><tspan
         sodipodi:role="line"
         id="tspan173375-9"
         style="font-size:1.76389px;fill:#ff0000;stroke-width:0.264583"
         x="-175.21605"
         y="60.283508">15mm</tspan></text>
    <text
       xml:space="preserve"
       style="font-size:1.41111px;line-height:1.25;font-family:sans-serif;fill:#ff00ff;stroke-width:0.264583"
       x="31.711531"
       y="59.961918"
       id="text182125"><tspan
         sodipodi:role="line"
         id="tspan182123"
         style="font-size:1.41111px;fill:#ff00ff;stroke-width:0.264583"
         x="31.711531"
         y="59.961918">einiBisObenuntenInnenLasche()</tspan><tspan
         sodipodi:role="line"
         style="font-size:1.41111px;fill:#ff00ff;stroke-width:0.264583"
         x="31.711531"
         y="61.725807"
         id="tspan190303">determineEini() </tspan><tspan
         sodipodi:role="line"
         style="font-size:1.41111px;fill:#ff00ff;stroke-width:0.264583"
         x="31.711531"
         y="63.489697"
         id="tspan190305">+ determineLinksRechtsLascheBreite() </tspan><tspan
         sodipodi:role="line"
         style="font-size:1.41111px;fill:#ff00ff;stroke-width:0.264583"
         x="31.711531"
         y="65.253586"
         id="tspan191285">+ 15</tspan></text>
    <path
       style="fill:#ff00ff;stroke:#ff00ff;stroke-width:0.100233px;stroke-linecap:butt;stroke-linejoin:miter;stroke-opacity:1"
       d="m 39.242784,176.70495 21.549443,0"
       id="path1886-1-90-1-4"
       sodipodi:nodetypes="cc" />
    <path
       style="fill:#ff00ff;stroke:#ff00ff;stroke-width:0.100233px;stroke-linecap:butt;stroke-linejoin:miter;stroke-opacity:1"
       d="m 60.792227,177.31681 v -2.10377"
       id="path1886-1-90-1-5-1"
       sodipodi:nodetypes="cc" />
    <path
       style="fill:#ff00ff;stroke:#ff00ff;stroke-width:0.100233px;stroke-linecap:butt;stroke-linejoin:miter;stroke-opacity:1"
       d="m 39.216418,177.47669 v -1.72343"
       id="path1886-1-90-1-5-1-3"
       sodipodi:nodetypes="cc" />
    <text
       xml:space="preserve"
       style="font-size:1.41111px;line-height:1.25;font-family:sans-serif;fill:#ff00ff;stroke-width:0.264583"
       x="19.030228"
       y="174.61285"
       id="text182125-5"><tspan
         sodipodi:role="line"
         id="tspan182123-5"
         style="font-size:1.41111px;fill:#ff00ff;stroke-width:0.264583"
         x="19.030228"
         y="174.61285">einiBisObenuntenInnenLasche()</tspan><tspan
         sodipodi:role="line"
         style="font-size:1.41111px;fill:#ff00ff;stroke-width:0.264583"
         x="19.030228"
         y="176.37674"
         id="tspan190303-5">determineEini() </tspan><tspan
         sodipodi:role="line"
         style="font-size:1.41111px;fill:#ff00ff;stroke-width:0.264583"
         x="19.030228"
         y="178.14062"
         id="tspan190305-4">+ determineLinksRechtsLascheBreite() </tspan><tspan
         sodipodi:role="line"
         style="font-size:1.41111px;fill:#ff00ff;stroke-width:0.264583"
         x="19.030228"
         y="179.90451"
         id="tspan191285-8">+ 15</tspan></text>
  </g>
</svg>
