<?xml version="1.0" encoding="utf-8"?>
<!-- Generator: Adobe Illustrator 24.0.3, SVG Export Plug-In . SVG Version: 6.00 Build 0)  -->
<svg version="1.1" id="Ebene_1" xmlns="http://www.w3.org/2000/svg" xmlns:xlink="http://www.w3.org/1999/xlink" x="0px" y="0px"
	 viewBox="0 0 73.12 73.99" style="enable-background:new 0 0 73.12 73.99;" xml:space="preserve">
<style type="text/css">
	.st0{fill:#33BAD4;}
	.st1{fill:#00AACB;}
</style>
<g>
	<path class="st0" d="M71.62,46.55c-2.42-6.83-9.05-18.1-17.72-27.18c-8.73-9.19-21.4-19.69-30.24-19.36
		C17.02,0.27,13.28,4.76,9.92,11.34c-0.31,0.84,0.08,1.56,1.43,1.56h22.08c0,0,1.64-0.04,2.52,0.83c3.2,3.17,5.31,6.22,6.91,9.81
		c0.71,1.58-0.09,2.72-2.26,2.72c-3.99,0-7.88,0-9.62,0c-1.07,0-1.86,0.94-1.86,1.99c0,0.01,0,0.01,0,0.02l-0.04,26.78
		c0,0,0.04,1.21-1.49,1.94c-3,1.44-7.64,2.75-11.97,3.21c0,0-1.34,0.26-1.34-1.42V28.24v0c0-1.08-0.84-1.96-1.91-1.96H5.34
		c-0.96,0-1.49,0.52-1.79,1.29c-2.42,8.8-3.67,18.31-3.54,24.21C0.2,59.84,1.15,65.3,4.78,69.85c3.44,4.31,14.16,4.85,24.53,3.43
		c16.66-2.2,25.68-6.05,33.91-10.16C74.93,57.47,74.03,53.39,71.62,46.55"/>
	<path class="st1" d="M63.21,63.12c2.47-1.19,4.35-2.31,5.8-3.4c-7.55-15.11-22.24-26.24-39.9-29.31l-0.03,24.66
		c0,0,0.04,1.21-1.49,1.94c-3.01,1.44-7.64,2.75-11.97,3.21c0,0-1.34,0.26-1.34-1.42V29.75c-4.09,0.35-8.05,1.11-11.84,2.27
		C0.77,39.45-0.1,46.86,0.01,51.77C0.2,59.84,1.15,65.3,4.78,69.85c3.44,4.31,14.16,4.85,24.53,3.43
		C45.96,71.09,54.98,67.23,63.21,63.12"/>
</g>
</svg>
